<svg width="580" height="121" viewBox="0 0 580 121" fill="none" xmlns="http://www.w3.org/2000/svg">
<mask id="mask0_1_22365" style="mask-type:alpha" maskUnits="userSpaceOnUse" x="1" y="1" width="577" height="120">
<rect width="577" height="120" transform="translate(1 1)" fill="url(#paint0_linear_1_22365)"/>
</mask>
<g mask="url(#mask0_1_22365)">
<path opacity="0.2" d="M22.2633 82.3966L1.5 93.5H578.5V1.5L570.304 17.3621H559.376C556.462 20.0057 550.415 25.2931 549.541 25.2931C548.666 25.2931 542.984 28.4655 540.252 30.0517L516.757 34.8103L503.097 41.1552L481.241 34.8103L469.766 30.0517L453.374 41.1552H436.436L422.229 30.0517C416.765 28.4655 405.619 25.2931 404.744 25.2931C403.87 25.2931 396.73 22.1207 393.27 20.5345H384.527L363.764 25.2931L345.733 30.0517L337.537 41.1552L312.949 45.9138L300.382 50.6724L286.175 58.6035L272.515 69.0129H266.505L250.113 70.0043L234.267 58.6035L220.607 50.6724H212.411L198.205 45.9138L177.988 50.6724H158.864L139.74 58.6035L120.616 68.1207L106.409 77.6379L91.1098 82.3966L70.3466 77.6379L53.9545 82.3966L37.5625 87.1552L22.2633 82.3966Z" fill="#079455"/>
</g>
<path d="M1.5 93.5L22.2633 82.3966L37.5625 87.1552L53.9545 82.3966L70.3466 77.6379L91.1098 82.3966L106.409 77.6379L120.616 68.1207L139.74 58.6035L158.864 50.6724H177.988L198.205 45.9138L212.411 50.6724H220.607L234.267 58.6035L250.113 70.0043L266.505 69.0129H272.515L286.175 58.6035L300.382 50.6724L312.949 45.9138L337.537 41.1552L345.733 30.0517L363.764 25.2931L384.527 20.5345H393.27C396.73 22.1207 403.87 25.2931 404.744 25.2931C405.619 25.2931 416.765 28.4655 422.229 30.0517L436.436 41.1552H453.374L469.766 30.0517L481.241 34.8103L503.097 41.1552L516.757 34.8103L540.252 30.0517C542.984 28.4655 548.666 25.2931 549.541 25.2931C550.415 25.2931 556.462 20.0057 559.376 17.3621H570.304L578.5 1.5" stroke="#17B26A" stroke-width="2" stroke-linecap="round" stroke-linejoin="round"/>
<g opacity="0.2">
<rect x="362.292" y="16.7761" width="18.8462" height="14.8462" rx="7.42308" stroke="#17B26A" stroke-width="1.15385"/>
</g>
<rect x="365.058" y="17.9606" width="12.4759" height="12.4759" rx="6.23795" fill="white"/>
<rect x="365.058" y="17.9606" width="12.4759" height="12.4759" rx="6.23795" stroke="#17B26A" stroke-width="0.788474"/>
<defs>
<linearGradient id="paint0_linear_1_22365" x1="288.5" y1="0" x2="288.5" y2="120" gradientUnits="userSpaceOnUse">
<stop/>
<stop offset="1" stop-opacity="0"/>
</linearGradient>
</defs>
</svg>
