<svg width="20" height="20" viewBox="0 0 20 20" fill="none" xmlns="http://www.w3.org/2000/svg">
<path d="M14.4115 15.4727C13.0924 16.3094 11.562 16.7525 10 16.75C5.956 16.75 2.5915 13.84 1.88575 9.99999C2.20827 8.25303 3.08697 6.65716 4.39075 5.45049L2.044 3.10599L3.10525 2.04474L17.9545 16.8947L16.8932 17.9552L14.4108 15.4727H14.4115ZM5.45125 6.51249C4.432 7.43918 3.72199 8.65658 3.41725 9.99999C3.65147 11.0248 4.1217 11.9808 4.7905 12.7919C5.45931 13.603 6.30822 14.2468 7.26966 14.672C8.23111 15.0972 9.27854 15.292 10.3286 15.2411C11.3786 15.1901 12.4022 14.8948 13.318 14.3785L11.797 12.8575C11.1495 13.2654 10.3827 13.4411 9.62218 13.3558C8.86171 13.2706 8.15278 12.9294 7.61168 12.3883C7.07057 11.8472 6.72942 11.1383 6.64417 10.3778C6.55892 9.61734 6.73464 8.85047 7.1425 8.20299L5.45125 6.51249ZM10.6855 11.746L8.254 9.31449C8.12055 9.65419 8.08914 10.0255 8.16363 10.3827C8.23812 10.74 8.41526 11.0678 8.67334 11.3259C8.93141 11.584 9.2592 11.7611 9.61649 11.8356C9.97378 11.9101 10.345 11.8787 10.6847 11.7452L10.6855 11.746ZM16.6052 13.444L15.532 12.3715C16.0334 11.657 16.3903 10.8514 16.5828 9.99999C16.3789 9.10728 15.9957 8.26535 15.4564 7.52536C14.917 6.78537 14.2328 6.16278 13.4454 5.69544C12.658 5.2281 11.7837 4.92576 10.8758 4.80681C9.96788 4.68786 9.04525 4.75477 8.164 5.00349L6.9805 3.81999C7.91575 3.45249 8.935 3.24999 10 3.24999C14.044 3.24999 17.4085 6.15999 18.1143 9.99999C17.8844 11.2493 17.3679 12.4282 16.6052 13.444ZM9.79225 6.63099C10.2696 6.60149 10.7478 6.67379 11.1952 6.8431C11.6425 7.01241 12.0487 7.27487 12.3869 7.61308C12.7251 7.95128 12.9876 8.35751 13.1569 8.80483C13.3262 9.25215 13.3985 9.73036 13.369 10.2077L9.7915 6.63099H9.79225Z" fill="#CDD0D5"/>
</svg>
