<svg width="24" height="23" viewBox="0 0 24 23" fill="none" xmlns="http://www.w3.org/2000/svg">
<path d="M23.3137 11.6549C23.3137 17.8491 18.3045 22.8873 12.0805 22.8873C9.53186 22.8873 7.19102 22.0281 5.29386 20.6054V19.2418C5.29386 18.916 5.56061 18.6194 5.91627 18.6194H19.1347C19.2427 18.6204 19.3491 18.5928 19.4429 18.5394C19.5368 18.4859 19.6148 18.4086 19.669 18.3151C19.7233 18.2217 19.7518 18.1156 19.7516 18.0076C19.7515 17.8996 19.7227 17.7935 19.6682 17.7003L18.3935 15.4792C18.3349 15.3905 18.2558 15.3173 18.1629 15.2657C18.0701 15.214 17.9662 15.1855 17.86 15.1825H5.9462C5.78141 15.1834 5.62364 15.2493 5.50711 15.3658C5.39059 15.4823 5.32472 15.6401 5.32379 15.8049V17.0497C5.32585 17.132 5.31115 17.2139 5.2806 17.2903C5.25005 17.3667 5.20428 17.4362 5.14607 17.4944C5.08786 17.5526 5.01842 17.5984 4.94198 17.6289C4.86554 17.6595 4.78368 17.6742 4.70139 17.6721H2.59735C2.29989 17.2105 2.04191 16.7246 1.82617 16.2195H4.70139C4.78368 16.2216 4.86554 16.2069 4.94198 16.1763C5.01842 16.1458 5.08786 16.1 5.14607 16.0418C5.20428 15.9836 5.25005 15.9142 5.2806 15.8377C5.31115 15.7613 5.32585 15.6794 5.32379 15.5971V14.3523C5.32379 14.0266 5.59054 13.7299 5.9462 13.7299H16.3194C16.4272 13.7309 16.5334 13.7032 16.6272 13.6498C16.7209 13.5964 16.7988 13.5192 16.853 13.4259C16.9072 13.3326 16.9358 13.2267 16.9357 13.1188C16.9357 13.0109 16.9071 12.9049 16.8528 12.8117L15.5781 10.5888C15.5195 10.5002 15.4404 10.427 15.3476 10.3753C15.2547 10.3237 15.1508 10.2952 15.0446 10.2921H5.9462C5.78141 10.2931 5.62364 10.3589 5.50711 10.4755C5.39059 10.592 5.32472 10.7498 5.32379 10.9146V12.1594C5.32585 12.2417 5.31115 12.3235 5.2806 12.4C5.25005 12.4764 5.20428 12.5458 5.14607 12.604C5.08786 12.6623 5.01842 12.708 4.94198 12.7386C4.86554 12.7691 4.78368 12.7838 4.70139 12.7818H0.907082C0.872656 12.4271 0.852978 12.0711 0.848099 11.7148V11.3292H4.67146C4.75375 11.3312 4.83561 11.3166 4.91205 11.286C4.98849 11.2554 5.05793 11.2097 5.11614 11.1515C5.17435 11.0933 5.22012 11.0238 5.25067 10.9474C5.28122 10.8709 5.29592 10.7891 5.29386 10.7068V9.46197C5.29181 9.37968 5.3065 9.29782 5.33706 9.22138C5.36761 9.14494 5.41338 9.0755 5.47159 9.01729C5.5298 8.95908 5.59923 8.91331 5.67568 8.88276C5.75212 8.85221 5.83397 8.83751 5.91627 8.83957H13.4441C13.552 8.84052 13.6582 8.8129 13.752 8.7595C13.8457 8.70611 13.9236 8.62884 13.9778 8.53556C14.032 8.44228 14.0605 8.33632 14.0605 8.22844C14.0605 8.12055 14.0319 8.01461 13.9776 7.92136L12.7328 5.66767C12.6741 5.5792 12.595 5.50614 12.5022 5.45466C12.4093 5.40318 12.3054 5.37479 12.1993 5.37187H5.9462C5.78157 5.37279 5.62392 5.43854 5.50742 5.55488C5.39092 5.67121 5.32495 5.82876 5.32379 5.9934V7.23909C5.32585 7.32139 5.31115 7.40324 5.2806 7.47969C5.25005 7.55613 5.20428 7.62556 5.14607 7.68377C5.08786 7.74198 5.01842 7.78775 4.94198 7.81831C4.86554 7.84886 4.78368 7.86355 4.70139 7.8615H1.53037C1.7082 7.35794 1.91508 6.88431 2.18183 6.40892H4.70139C4.78361 6.41097 4.86539 6.3963 4.94177 6.3658C5.01815 6.33531 5.08755 6.28962 5.14574 6.2315C5.20394 6.17338 5.24973 6.10406 5.28034 6.02772C5.31094 5.95138 5.32573 5.86962 5.32379 5.7874V4.5417C5.32379 4.21597 5.59054 3.91929 5.9462 3.91929H10.6587C10.7667 3.92034 10.8731 3.89274 10.9669 3.8393C11.0608 3.78586 11.1388 3.70849 11.193 3.61507C11.2473 3.52166 11.2758 3.41554 11.2756 3.30753C11.2755 3.19952 11.2467 3.09348 11.1922 3.00021L9.91746 0.777328C9.88752 0.748277 9.88752 0.718345 9.85847 0.689293C10.5698 0.539634 11.3401 0.451599 12.1104 0.451599C18.2755 0.451599 23.3137 5.46079 23.3137 11.6549Z" fill="#F46C31"/>
</svg>
