<svg width="11" height="14" viewBox="0 0 11 14" fill="none" xmlns="http://www.w3.org/2000/svg">
<path d="M5.50812 13.5808C8.33997 13.5808 10.6352 11.8964 10.6352 8.94865C10.6352 7.68534 10.2079 5.57982 8.49891 3.8954C8.71254 5.15872 7.43077 5.57982 7.43077 5.57982C8.07166 3.4743 6.36263 0.526573 3.7991 0.105469C4.10416 1.78988 4.22636 3.4743 2.09008 5.15872C1.02194 6.00092 0.381058 7.4571 0.381058 8.94865C0.381058 11.8964 2.67627 13.5808 5.50812 13.5808ZM5.50812 12.7386C4.0922 12.7386 2.94459 11.8964 2.94459 10.4225C2.94459 9.79086 3.15822 8.7381 4.01273 7.89589C3.90592 8.52755 4.65361 8.94865 4.65361 8.94865C4.33317 7.89589 5.08087 6.21148 6.36263 6.00092C6.20968 6.84313 6.14901 7.68534 7.21715 8.52755C7.75121 8.94865 8.07166 9.67632 8.07166 10.4225C8.07166 11.8964 6.92405 12.7386 5.50812 12.7386Z" fill="#FF6A00"/>
</svg>
