<svg width="593" height="114" viewBox="0 0 593 114" fill="none" xmlns="http://www.w3.org/2000/svg">
<path d="M71.6064 393.854L71.6064 -198.301M146.326 393.854L146.326 -198.301M221.046 393.854L221.046 -198.301M295.766 393.854L295.766 -198.301M370.486 393.854L370.486 -198.301M445.206 393.854L445.206 -198.301M519.926 393.854L519.926 -198.301M1.95961e-05 -126.694H592.155M1.63301e-05 -51.9743H592.155M1.3064e-05 22.7456H592.155M9.79803e-06 97.4655H592.155M6.53202e-06 172.185H592.155M3.26601e-06 246.905H592.155M0 321.625H592.155" stroke="url(#paint0_radial_1_16802)" stroke-width="0.185048"/>
<defs>
<radialGradient id="paint0_radial_1_16802" cx="0" cy="0" r="1" gradientUnits="userSpaceOnUse" gradientTransform="translate(296.077 97.7767) rotate(90) scale(296.077)">
<stop stop-color="white" stop-opacity="0.8"/>
<stop offset="1" stop-color="white" stop-opacity="0"/>
</radialGradient>
</defs>
</svg>
