<svg width="318" height="122" viewBox="0 0 318 122" fill="none" xmlns="http://www.w3.org/2000/svg">
<rect y="0.5" width="318" height="120.882" rx="12" fill="#939394" fill-opacity="0.09"/>
<g opacity="0.24">
<mask id="mask0_23_8779" style="mask-type:alpha" maskUnits="userSpaceOnUse" x="0" y="0" width="318" height="119">
<rect y="0.5" width="318" height="118" rx="12" fill="#939394" fill-opacity="0.5"/>
</mask>
<g mask="url(#mask0_23_8779)">
<path d="M330.995 54.9255C330.995 86.6752 305.355 112.5 273.495 112.5C260.45 112.5 248.468 108.096 238.757 100.804V93.8139C238.757 92.1443 240.122 90.6236 241.943 90.6236H309.604C310.157 90.629 310.701 90.4875 311.182 90.2136C311.662 89.9396 312.062 89.5431 312.339 89.0642C312.617 88.5854 312.763 88.0415 312.762 87.4878C312.761 86.9342 312.614 86.3907 312.335 85.9126L305.81 74.5277C305.51 74.0734 305.105 73.698 304.63 73.4333C304.155 73.1686 303.623 73.0224 303.079 73.007H242.096C241.252 73.0117 240.445 73.3493 239.848 73.9466C239.252 74.5439 238.915 75.3526 238.91 76.1973V82.5779C238.92 82.9997 238.845 83.4193 238.689 83.8111C238.532 84.2029 238.298 84.5588 238 84.8572C237.702 85.1556 237.347 85.3902 236.955 85.5468C236.564 85.7034 236.145 85.7787 235.724 85.7682H224.954C223.431 83.402 222.111 80.9113 221.006 78.3226H235.724C236.145 78.3332 236.564 78.2578 236.955 78.1012C237.347 77.9446 237.702 77.71 238 77.4117C238.298 77.1133 238.532 76.7574 238.689 76.3656C238.845 75.9737 238.92 75.5542 238.91 75.1323V68.7517C238.91 67.0821 240.275 65.5614 242.096 65.5614H295.193C295.745 65.5663 296.289 65.4247 296.769 65.151C297.249 64.8773 297.648 64.4813 297.925 64.0032C298.202 63.525 298.348 62.9819 298.348 62.4289C298.348 61.8759 298.202 61.3329 297.924 60.8549L291.399 49.461C291.099 49.0067 290.694 48.6313 290.219 48.3666C289.744 48.1019 289.212 47.9557 288.668 47.9403H242.096C241.252 47.945 240.445 48.2826 239.848 48.8799C239.252 49.4772 238.915 50.2859 238.91 51.1306V57.5112C238.92 57.933 238.845 58.3526 238.689 58.7444C238.532 59.1362 238.298 59.4921 238 59.7905C237.702 60.0889 237.347 60.3235 236.955 60.4801C236.564 60.6367 236.145 60.712 235.724 60.7015H216.302C216.126 58.8834 216.025 57.0588 216 55.2324V53.2559H235.571C235.992 53.2665 236.411 53.1911 236.802 53.0345C237.194 52.8779 237.549 52.6433 237.847 52.345C238.145 52.0466 238.379 51.6907 238.536 51.2988C238.692 50.907 238.767 50.4875 238.757 50.0656V43.685C238.746 43.2632 238.821 42.8436 238.978 42.4518C239.134 42.06 239.368 41.7041 239.666 41.4057C239.964 41.1073 240.32 40.8727 240.711 40.7161C241.102 40.5595 241.521 40.4842 241.943 40.4947H280.476C281.028 40.4996 281.572 40.358 282.051 40.0843C282.531 39.8106 282.93 39.4146 283.208 38.9364C283.485 38.4583 283.631 37.9152 283.631 37.3622C283.631 36.8092 283.484 36.2662 283.207 35.7882L276.835 24.2363C276.534 23.7828 276.129 23.4084 275.654 23.1445C275.179 22.8806 274.647 22.7351 274.104 22.7201H242.096C241.253 22.7249 240.446 23.0619 239.85 23.6582C239.253 24.2545 238.916 25.062 238.91 25.9059V32.2911C238.92 32.7129 238.845 33.1325 238.689 33.5243C238.532 33.9161 238.298 34.272 238 34.5704C237.702 34.8688 237.347 35.1034 236.955 35.26C236.564 35.4166 236.145 35.4919 235.724 35.4814H219.492C220.403 32.9002 221.462 30.4725 222.827 28.0358H235.724C236.145 28.0463 236.563 27.9711 236.954 27.8148C237.345 27.6585 237.701 27.4243 237.998 27.1264C238.296 26.8285 238.531 26.4731 238.687 26.0818C238.844 25.6905 238.92 25.2715 238.91 24.85V18.4649C238.91 16.7953 240.275 15.2746 242.096 15.2746H266.218C266.771 15.2799 267.315 15.1385 267.796 14.8645C268.276 14.5906 268.675 14.194 268.953 13.7152C269.231 13.2364 269.376 12.6924 269.376 12.1388C269.375 11.5852 269.228 11.0416 268.949 10.5636L262.424 -0.83039C262.27 -0.979302 262.27 -1.13273 262.122 -1.28164C265.763 -2.04875 269.706 -2.5 273.649 -2.5C305.206 -2.5 330.995 23.1759 330.995 54.9255Z" fill="#F46C31" fill-opacity="0.86"/>
</g>
</g>
</svg>
