<svg width="321" height="99" viewBox="0 0 321 99" fill="none" xmlns="http://www.w3.org/2000/svg">
<line x1="0.5" y1="10.5" x2="466.5" y2="10.5" stroke="#31353F" stroke-linecap="round"/>
<line x1="0.5" y1="24.7998" x2="466.5" y2="24.7998" stroke="#31353F" stroke-linecap="round"/>
<line x1="0.5" y1="36.6001" x2="466.5" y2="36.6001" stroke="#31353F" stroke-linecap="round"/>
<line x1="0.5" y1="48.3999" x2="466.5" y2="48.3999" stroke="#31353F" stroke-linecap="round"/>
<line x1="0.5" y1="60.2002" x2="466.5" y2="60.2002" stroke="#31353F" stroke-linecap="round"/>
<line x1="0.5" y1="72" x2="466.5" y2="72" stroke="#31353F" stroke-linecap="round"/>
<path d="M28.7493 85.2727H29.8061V91.5114C29.8061 92.0682 29.7038 92.5412 29.4993 92.9304C29.2947 93.3196 29.0064 93.6151 28.6342 93.8168C28.2621 94.0185 27.8232 94.1193 27.3175 94.1193C26.8402 94.1193 26.4155 94.0327 26.0433 93.8594C25.6712 93.6832 25.3786 93.4332 25.1655 93.1094C24.9524 92.7855 24.8459 92.4006 24.8459 91.9545H25.8857C25.8857 92.2017 25.9467 92.4176 26.0689 92.6023C26.1939 92.7841 26.3643 92.9261 26.5803 93.0284C26.7962 93.1307 27.0419 93.1818 27.3175 93.1818C27.6214 93.1818 27.88 93.1179 28.093 92.9901C28.3061 92.8622 28.468 92.6747 28.5788 92.4276C28.6925 92.1776 28.7493 91.8722 28.7493 91.5114V85.2727ZM33.7138 94.1534C33.299 94.1534 32.9226 94.0753 32.5845 93.919C32.2464 93.7599 31.978 93.5312 31.7791 93.233C31.5803 92.9318 31.4808 92.5682 31.4808 92.142C31.4808 91.767 31.5547 91.4631 31.7024 91.2301C31.8501 90.9943 32.0476 90.8097 32.2947 90.6761C32.5419 90.5426 32.8146 90.4432 33.1129 90.3778C33.4141 90.3097 33.7166 90.2557 34.0206 90.2159C34.4183 90.1648 34.7408 90.1264 34.9879 90.1009C35.2379 90.0724 35.4197 90.0256 35.5334 89.9602C35.6499 89.8949 35.7081 89.7812 35.7081 89.6193V89.5852C35.7081 89.1648 35.593 88.8381 35.3629 88.6051C35.1357 88.3722 34.7905 88.2557 34.3274 88.2557C33.8473 88.2557 33.4709 88.3608 33.1982 88.571C32.9254 88.7812 32.7337 89.0057 32.6229 89.2443L31.6683 88.9034C31.8388 88.5057 32.0661 88.196 32.3501 87.9744C32.6371 87.75 32.9496 87.5937 33.2876 87.5057C33.6286 87.4148 33.9638 87.3693 34.2933 87.3693C34.5036 87.3693 34.745 87.3949 35.0178 87.446C35.2933 87.4943 35.5589 87.5952 35.8146 87.7486C36.0732 87.902 36.2876 88.1335 36.4581 88.4432C36.6286 88.7528 36.7138 89.1676 36.7138 89.6875V94H35.7081V93.1136H35.657C35.5888 93.2557 35.4751 93.4077 35.3161 93.5696C35.157 93.7315 34.9453 93.8693 34.6811 93.983C34.4169 94.0966 34.0945 94.1534 33.7138 94.1534ZM33.8672 93.25C34.2649 93.25 34.6001 93.1719 34.8729 93.0156C35.1484 92.8594 35.3558 92.6577 35.495 92.4105C35.6371 92.1634 35.7081 91.9034 35.7081 91.6307V90.7102C35.6655 90.7614 35.5717 90.8082 35.4268 90.8509C35.2848 90.8906 35.12 90.9261 34.9325 90.9574C34.7479 90.9858 34.5675 91.0114 34.3913 91.0341C34.218 91.054 34.0774 91.071 33.9695 91.0852C33.7081 91.1193 33.4638 91.1747 33.2365 91.2514C33.0121 91.3253 32.8303 91.4375 32.6911 91.5881C32.5547 91.7358 32.4865 91.9375 32.4865 92.1932C32.4865 92.5426 32.6158 92.8068 32.8743 92.9858C33.1357 93.1619 33.4666 93.25 33.8672 93.25ZM39.555 90.0625V94H38.5494V87.4545H39.521V88.4773H39.6062C39.7596 88.1449 39.9925 87.8778 40.305 87.6761C40.6175 87.4716 41.021 87.3693 41.5153 87.3693C41.9585 87.3693 42.3462 87.4602 42.6786 87.642C43.011 87.821 43.2695 88.0938 43.4542 88.4602C43.6388 88.8239 43.7312 89.2841 43.7312 89.8409V94H42.7255V89.9091C42.7255 89.3949 42.592 88.9943 42.3249 88.7074C42.0579 88.4176 41.6914 88.2727 41.2255 88.2727C40.9045 88.2727 40.6175 88.3423 40.3647 88.4815C40.1147 88.6207 39.9173 88.8239 39.7724 89.0909C39.6275 89.358 39.555 89.6818 39.555 90.0625Z" fill="#475467"/>
<path d="M60.6932 94V85.2727H65.9261V86.2102H61.75V89.1591H65.5341V90.0966H61.75V94H60.6932ZM69.8636 94.1364C69.2329 94.1364 68.6889 93.9972 68.2315 93.7188C67.777 93.4375 67.4261 93.0455 67.179 92.5426C66.9346 92.0369 66.8125 91.4489 66.8125 90.7784C66.8125 90.108 66.9346 89.517 67.179 89.0057C67.4261 88.4915 67.7699 88.0909 68.2102 87.804C68.6534 87.5142 69.1704 87.3693 69.7614 87.3693C70.1023 87.3693 70.4389 87.4261 70.7713 87.5398C71.1037 87.6534 71.4062 87.8381 71.679 88.0938C71.9517 88.3466 72.169 88.6818 72.331 89.0994C72.4929 89.517 72.5739 90.0312 72.5739 90.642V91.0682H67.5284V90.1989H71.5511C71.5511 89.8295 71.4773 89.5 71.3295 89.2102C71.1846 88.9205 70.9773 88.6918 70.7074 88.5241C70.4403 88.3565 70.125 88.2727 69.7614 88.2727C69.3608 88.2727 69.0142 88.3722 68.7216 88.571C68.4318 88.767 68.2088 89.0227 68.0525 89.3381C67.8963 89.6534 67.8182 89.9915 67.8182 90.3523V90.9318C67.8182 91.4261 67.9034 91.8452 68.0739 92.1889C68.2471 92.5298 68.4872 92.7898 68.794 92.9688C69.1008 93.1449 69.4574 93.233 69.8636 93.233C70.1278 93.233 70.3665 93.196 70.5795 93.1222C70.7954 93.0455 70.9815 92.9318 71.1378 92.7812C71.294 92.6278 71.4148 92.4375 71.5 92.2102L72.4716 92.483C72.3693 92.8125 72.1974 93.1023 71.956 93.3523C71.7145 93.5994 71.4162 93.7926 71.0611 93.9318C70.706 94.0682 70.3068 94.1364 69.8636 94.1364ZM74.24 94V85.2727H75.2457V88.4943H75.331C75.4048 88.3807 75.5071 88.2358 75.6378 88.0597C75.7713 87.8807 75.9616 87.7216 76.2088 87.5824C76.4588 87.4403 76.7969 87.3693 77.223 87.3693C77.7741 87.3693 78.2599 87.5071 78.6804 87.7827C79.1008 88.0582 79.429 88.4489 79.6648 88.9545C79.9006 89.4602 80.0185 90.0568 80.0185 90.7443C80.0185 91.4375 79.9006 92.0384 79.6648 92.5469C79.429 93.0526 79.1023 93.4446 78.6846 93.723C78.267 93.9986 77.7855 94.1364 77.24 94.1364C76.8196 94.1364 76.4829 94.0668 76.2301 93.9276C75.9773 93.7855 75.7827 93.625 75.6463 93.446C75.5099 93.2642 75.4048 93.1136 75.331 92.9943H75.2116V94H74.24ZM75.2287 90.7273C75.2287 91.2216 75.3011 91.6577 75.446 92.0355C75.5909 92.4105 75.8025 92.7045 76.081 92.9176C76.3594 93.1278 76.7003 93.233 77.1037 93.233C77.5241 93.233 77.875 93.1222 78.1562 92.9006C78.4403 92.6761 78.6534 92.375 78.7954 91.9972C78.9403 91.6165 79.0128 91.1932 79.0128 90.7273C79.0128 90.267 78.9418 89.8523 78.7997 89.483C78.6605 89.1108 78.4489 88.8168 78.1648 88.6009C77.8835 88.3821 77.5298 88.2727 77.1037 88.2727C76.6946 88.2727 76.3508 88.3764 76.0724 88.5838C75.794 88.7884 75.5838 89.0753 75.4418 89.4446C75.2997 89.8111 75.2287 90.2386 75.2287 90.7273Z" fill="#475467"/>
<path d="M96.3784 85.2727H97.6397L100.606 92.517H100.708L103.674 85.2727H104.935V94H103.947V87.3693H103.861L101.134 94H100.179L97.4522 87.3693H97.367V94H96.3784V85.2727ZM108.844 94.1534C108.429 94.1534 108.053 94.0753 107.715 93.919C107.377 93.7599 107.108 93.5312 106.909 93.233C106.71 92.9318 106.611 92.5682 106.611 92.142C106.611 91.767 106.685 91.4631 106.833 91.2301C106.98 90.9943 107.178 90.8097 107.425 90.6761C107.672 90.5426 107.945 90.4432 108.243 90.3778C108.544 90.3097 108.847 90.2557 109.151 90.2159C109.548 90.1648 109.871 90.1264 110.118 90.1009C110.368 90.0724 110.55 90.0256 110.664 89.9602C110.78 89.8949 110.838 89.7812 110.838 89.6193V89.5852C110.838 89.1648 110.723 88.8381 110.493 88.6051C110.266 88.3722 109.921 88.2557 109.458 88.2557C108.977 88.2557 108.601 88.3608 108.328 88.571C108.056 88.7812 107.864 89.0057 107.753 89.2443L106.798 88.9034C106.969 88.5057 107.196 88.196 107.48 87.9744C107.767 87.75 108.08 87.5937 108.418 87.5057C108.759 87.4148 109.094 87.3693 109.423 87.3693C109.634 87.3693 109.875 87.3949 110.148 87.446C110.423 87.4943 110.689 87.5952 110.945 87.7486C111.203 87.902 111.418 88.1335 111.588 88.4432C111.759 88.7528 111.844 89.1676 111.844 89.6875V94H110.838V93.1136H110.787C110.719 93.2557 110.605 93.4077 110.446 93.5696C110.287 93.7315 110.075 93.8693 109.811 93.983C109.547 94.0966 109.225 94.1534 108.844 94.1534ZM108.997 93.25C109.395 93.25 109.73 93.1719 110.003 93.0156C110.279 92.8594 110.486 92.6577 110.625 92.4105C110.767 92.1634 110.838 91.9034 110.838 91.6307V90.7102C110.796 90.7614 110.702 90.8082 110.557 90.8509C110.415 90.8906 110.25 90.9261 110.063 90.9574C109.878 90.9858 109.698 91.0114 109.521 91.0341C109.348 91.054 109.208 91.071 109.1 91.0852C108.838 91.1193 108.594 91.1747 108.367 91.2514C108.142 91.3253 107.96 91.4375 107.821 91.5881C107.685 91.7358 107.617 91.9375 107.617 92.1932C107.617 92.5426 107.746 92.8068 108.004 92.9858C108.266 93.1619 108.597 93.25 108.997 93.25ZM113.679 94V87.4545H114.651V88.4432H114.719C114.839 88.1193 115.054 87.8565 115.367 87.6548C115.679 87.4531 116.032 87.3523 116.424 87.3523C116.498 87.3523 116.59 87.3537 116.701 87.3565C116.812 87.3594 116.895 87.3636 116.952 87.3693V88.392C116.918 88.3835 116.84 88.3707 116.718 88.3537C116.599 88.3338 116.472 88.3239 116.339 88.3239C116.02 88.3239 115.736 88.3906 115.486 88.5241C115.239 88.6548 115.043 88.8366 114.898 89.0696C114.756 89.2997 114.685 89.5625 114.685 89.858V94H113.679Z" fill="#475467"/>
<path d="M133.38 94H132.273L135.477 85.2727H136.568L139.773 94H138.665L136.057 86.6534H135.988L133.38 94ZM133.79 90.5909H138.255V91.5284H133.79V90.5909ZM140.996 96.4545V87.4545H141.967V88.4943H142.086C142.16 88.3807 142.263 88.2358 142.393 88.0597C142.527 87.8807 142.717 87.7216 142.964 87.5824C143.214 87.4403 143.552 87.3693 143.978 87.3693C144.53 87.3693 145.015 87.5071 145.436 87.7827C145.856 88.0582 146.184 88.4489 146.42 88.9545C146.656 89.4602 146.774 90.0568 146.774 90.7443C146.774 91.4375 146.656 92.0384 146.42 92.5469C146.184 93.0526 145.858 93.4446 145.44 93.723C145.023 93.9986 144.541 94.1364 143.996 94.1364C143.575 94.1364 143.238 94.0668 142.986 93.9276C142.733 93.7855 142.538 93.625 142.402 93.446C142.265 93.2642 142.16 93.1136 142.086 92.9943H142.001V96.4545H140.996ZM141.984 90.7273C141.984 91.2216 142.057 91.6577 142.201 92.0355C142.346 92.4105 142.558 92.7045 142.836 92.9176C143.115 93.1278 143.456 93.233 143.859 93.233C144.28 93.233 144.63 93.1222 144.912 92.9006C145.196 92.6761 145.409 92.375 145.551 91.9972C145.696 91.6165 145.768 91.1932 145.768 90.7273C145.768 90.267 145.697 89.8523 145.555 89.483C145.416 89.1108 145.204 88.8168 144.92 88.6009C144.639 88.3821 144.285 88.2727 143.859 88.2727C143.45 88.2727 143.106 88.3764 142.828 88.5838C142.55 88.7884 142.339 89.0753 142.197 89.4446C142.055 89.8111 141.984 90.2386 141.984 90.7273ZM148.308 94V87.4545H149.28V88.4432H149.348C149.467 88.1193 149.683 87.8565 149.996 87.6548C150.308 87.4531 150.66 87.3523 151.052 87.3523C151.126 87.3523 151.219 87.3537 151.329 87.3565C151.44 87.3594 151.524 87.3636 151.581 87.3693V88.392C151.547 88.3835 151.469 88.3707 151.346 88.3537C151.227 88.3338 151.101 88.3239 150.967 88.3239C150.649 88.3239 150.365 88.3906 150.115 88.5241C149.868 88.6548 149.672 88.8366 149.527 89.0696C149.385 89.2997 149.314 89.5625 149.314 89.858V94H148.308Z" fill="#475467"/>
<path d="M167.661 85.2727H168.922L171.888 92.517H171.99L174.956 85.2727H176.218V94H175.229V87.3693H175.144L172.417 94H171.462L168.735 87.3693H168.649V94H167.661V85.2727ZM180.126 94.1534C179.712 94.1534 179.335 94.0753 178.997 93.919C178.659 93.7599 178.391 93.5312 178.192 93.233C177.993 92.9318 177.893 92.5682 177.893 92.142C177.893 91.767 177.967 91.4631 178.115 91.2301C178.263 90.9943 178.46 90.8097 178.707 90.6761C178.955 90.5426 179.227 90.4432 179.526 90.3778C179.827 90.3097 180.129 90.2557 180.433 90.2159C180.831 90.1648 181.153 90.1264 181.401 90.1009C181.651 90.0724 181.832 90.0256 181.946 89.9602C182.062 89.8949 182.121 89.7812 182.121 89.6193V89.5852C182.121 89.1648 182.006 88.8381 181.776 88.6051C181.548 88.3722 181.203 88.2557 180.74 88.2557C180.26 88.2557 179.883 88.3608 179.611 88.571C179.338 88.7812 179.146 89.0057 179.035 89.2443L178.081 88.9034C178.251 88.5057 178.479 88.196 178.763 87.9744C179.05 87.75 179.362 87.5937 179.7 87.5057C180.041 87.4148 180.376 87.3693 180.706 87.3693C180.916 87.3693 181.158 87.3949 181.43 87.446C181.706 87.4943 181.972 87.5952 182.227 87.7486C182.486 87.902 182.7 88.1335 182.871 88.4432C183.041 88.7528 183.126 89.1676 183.126 89.6875V94H182.121V93.1136H182.07C182.001 93.2557 181.888 93.4077 181.729 93.5696C181.57 93.7315 181.358 93.8693 181.094 93.983C180.83 94.0966 180.507 94.1534 180.126 94.1534ZM180.28 93.25C180.678 93.25 181.013 93.1719 181.285 93.0156C181.561 92.8594 181.768 92.6577 181.908 92.4105C182.05 92.1634 182.121 91.9034 182.121 91.6307V90.7102C182.078 90.7614 181.984 90.8082 181.839 90.8509C181.697 90.8906 181.533 90.9261 181.345 90.9574C181.16 90.9858 180.98 91.0114 180.804 91.0341C180.631 91.054 180.49 91.071 180.382 91.0852C180.121 91.1193 179.876 91.1747 179.649 91.2514C179.425 91.3253 179.243 91.4375 179.104 91.5881C178.967 91.7358 178.899 91.9375 178.899 92.1932C178.899 92.5426 179.028 92.8068 179.287 92.9858C179.548 93.1619 179.879 93.25 180.28 93.25ZM185.375 96.4545C185.205 96.4545 185.053 96.4403 184.919 96.4119C184.786 96.3864 184.693 96.3608 184.642 96.3352L184.898 95.4489C185.142 95.5114 185.358 95.5341 185.546 95.517C185.733 95.5 185.899 95.4162 186.044 95.2656C186.192 95.1179 186.327 94.8778 186.449 94.5455L186.637 94.0341L184.216 87.4545H185.307L187.114 92.6705H187.182L188.989 87.4545H190.08L187.301 94.9545C187.176 95.2926 187.022 95.5724 186.837 95.794C186.652 96.0185 186.438 96.1847 186.193 96.2926C185.952 96.4006 185.679 96.4545 185.375 96.4545Z" fill="#475467"/>
<path d="M209.826 85.2727H210.883V91.5114C210.883 92.0682 210.78 92.5412 210.576 92.9304C210.371 93.3196 210.083 93.6151 209.711 93.8168C209.338 94.0185 208.9 94.1193 208.394 94.1193C207.917 94.1193 207.492 94.0327 207.12 93.8594C206.748 93.6832 206.455 93.4332 206.242 93.1094C206.029 92.7855 205.922 92.4006 205.922 91.9545H206.962C206.962 92.2017 207.023 92.4176 207.145 92.6023C207.27 92.7841 207.441 92.9261 207.657 93.0284C207.873 93.1307 208.118 93.1818 208.394 93.1818C208.698 93.1818 208.956 93.1179 209.169 92.9901C209.383 92.8622 209.544 92.6747 209.655 92.4276C209.769 92.1776 209.826 91.8722 209.826 91.5114V85.2727ZM216.989 91.3239V87.4545H217.995V94H216.989V92.892H216.921C216.767 93.2244 216.529 93.5071 216.205 93.7401C215.881 93.9702 215.472 94.0852 214.978 94.0852C214.569 94.0852 214.205 93.9957 213.887 93.8168C213.569 93.6349 213.319 93.3622 213.137 92.9986C212.955 92.6321 212.864 92.1705 212.864 91.6136V87.4545H213.87V91.5455C213.87 92.0227 214.003 92.4034 214.27 92.6875C214.54 92.9716 214.884 93.1136 215.302 93.1136C215.552 93.1136 215.806 93.0497 216.064 92.9219C216.326 92.794 216.544 92.598 216.721 92.3338C216.9 92.0696 216.989 91.733 216.989 91.3239ZM220.842 90.0625V94H219.837V87.4545H220.808V88.4773H220.894C221.047 88.1449 221.28 87.8778 221.592 87.6761C221.905 87.4716 222.308 87.3693 222.803 87.3693C223.246 87.3693 223.634 87.4602 223.966 87.642C224.298 87.821 224.557 88.0938 224.742 88.4602C224.926 88.8239 225.019 89.2841 225.019 89.8409V94H224.013V89.9091C224.013 89.3949 223.879 88.9943 223.612 88.7074C223.345 88.4176 222.979 88.2727 222.513 88.2727C222.192 88.2727 221.905 88.3423 221.652 88.4815C221.402 88.6207 221.205 88.8239 221.06 89.0909C220.915 89.358 220.842 89.6818 220.842 90.0625Z" fill="#475467"/>
<path d="M245.548 85.2727H246.605V91.5114C246.605 92.0682 246.502 92.5412 246.298 92.9304C246.093 93.3196 245.805 93.6151 245.433 93.8168C245.061 94.0185 244.622 94.1193 244.116 94.1193C243.639 94.1193 243.214 94.0327 242.842 93.8594C242.47 93.6832 242.177 93.4332 241.964 93.1094C241.751 92.7855 241.644 92.4006 241.644 91.9545H242.684C242.684 92.2017 242.745 92.4176 242.867 92.6023C242.992 92.7841 243.163 92.9261 243.379 93.0284C243.595 93.1307 243.84 93.1818 244.116 93.1818C244.42 93.1818 244.679 93.1179 244.892 92.9901C245.105 92.8622 245.267 92.6747 245.377 92.4276C245.491 92.1776 245.548 91.8722 245.548 91.5114V85.2727ZM252.711 91.3239V87.4545H253.717V94H252.711V92.892H252.643C252.49 93.2244 252.251 93.5071 251.927 93.7401C251.603 93.9702 251.194 94.0852 250.7 94.0852C250.291 94.0852 249.927 93.9957 249.609 93.8168C249.291 93.6349 249.041 93.3622 248.859 92.9986C248.677 92.6321 248.586 92.1705 248.586 91.6136V87.4545H249.592V91.5455C249.592 92.0227 249.725 92.4034 249.992 92.6875C250.262 92.9716 250.606 93.1136 251.024 93.1136C251.274 93.1136 251.528 93.0497 251.787 92.9219C252.048 92.794 252.267 92.598 252.443 92.3338C252.622 92.0696 252.711 91.733 252.711 91.3239ZM256.565 85.2727V94H255.559V85.2727H256.565Z" fill="#475467"/>
<path d="M274.172 94H273.064L276.269 85.2727H277.36L280.564 94H279.456L276.848 86.6534H276.78L274.172 94ZM274.581 90.5909H279.047V91.5284H274.581V90.5909ZM285.912 91.3239V87.4545H286.918V94H285.912V92.892H285.844C285.691 93.2244 285.452 93.5071 285.128 93.7401C284.804 93.9702 284.395 94.0852 283.901 94.0852C283.492 94.0852 283.128 93.9957 282.81 93.8168C282.492 93.6349 282.242 93.3622 282.06 92.9986C281.878 92.6321 281.787 92.1705 281.787 91.6136V87.4545H282.793V91.5455C282.793 92.0227 282.926 92.4034 283.193 92.6875C283.463 92.9716 283.807 93.1136 284.225 93.1136C284.475 93.1136 284.729 93.0497 284.987 92.9219C285.249 92.794 285.468 92.598 285.644 92.3338C285.823 92.0696 285.912 91.733 285.912 91.3239ZM291.402 96.5909C290.916 96.5909 290.498 96.5284 290.149 96.4034C289.8 96.2812 289.508 96.1193 289.275 95.9176C289.045 95.7188 288.862 95.5057 288.726 95.2784L289.527 94.7159C289.618 94.8352 289.733 94.9716 289.872 95.125C290.011 95.2812 290.202 95.4162 290.443 95.5298C290.687 95.6463 291.007 95.7045 291.402 95.7045C291.93 95.7045 292.366 95.5767 292.71 95.321C293.054 95.0653 293.226 94.6648 293.226 94.1193V92.7898H293.14C293.067 92.9091 292.962 93.0568 292.825 93.233C292.692 93.4062 292.498 93.5611 292.246 93.6974C291.996 93.831 291.658 93.8977 291.231 93.8977C290.703 93.8977 290.229 93.7727 289.808 93.5227C289.39 93.2727 289.06 92.9091 288.815 92.4318C288.574 91.9545 288.453 91.375 288.453 90.6932C288.453 90.0227 288.571 89.4389 288.807 88.9418C289.042 88.4418 289.371 88.0554 289.791 87.7827C290.212 87.5071 290.697 87.3693 291.248 87.3693C291.675 87.3693 292.013 87.4403 292.263 87.5824C292.515 87.7216 292.709 87.8807 292.842 88.0597C292.979 88.2358 293.084 88.3807 293.158 88.4943H293.26V87.4545H294.231V94.1875C294.231 94.75 294.104 95.2074 293.848 95.5597C293.595 95.9148 293.254 96.1747 292.825 96.3395C292.399 96.5071 291.925 96.5909 291.402 96.5909ZM291.368 92.9943C291.771 92.9943 292.112 92.902 292.39 92.7173C292.669 92.5327 292.881 92.267 293.025 91.9205C293.17 91.5739 293.243 91.1591 293.243 90.6761C293.243 90.2045 293.172 89.7884 293.03 89.4276C292.888 89.0668 292.677 88.7841 292.399 88.5795C292.121 88.375 291.777 88.2727 291.368 88.2727C290.942 88.2727 290.587 88.3807 290.302 88.5966C290.021 88.8125 289.81 89.1023 289.667 89.4659C289.528 89.8295 289.459 90.233 289.459 90.6761C289.459 91.1307 289.53 91.5327 289.672 91.8821C289.817 92.2287 290.03 92.5014 290.311 92.7003C290.595 92.8963 290.947 92.9943 291.368 92.9943Z" fill="#475467"/>
<path d="M315.946 87.4545C315.895 87.0227 315.687 86.6875 315.324 86.4489C314.96 86.2102 314.514 86.0909 313.986 86.0909C313.599 86.0909 313.261 86.1534 312.971 86.2784C312.685 86.4034 312.46 86.5753 312.298 86.794C312.139 87.0128 312.06 87.2614 312.06 87.5398C312.06 87.7727 312.115 87.973 312.226 88.1406C312.339 88.3054 312.484 88.4432 312.66 88.554C312.837 88.6619 313.021 88.7514 313.214 88.8224C313.408 88.8906 313.585 88.946 313.747 88.9886L314.633 89.2273C314.861 89.2869 315.113 89.3693 315.392 89.4744C315.673 89.5795 315.942 89.723 316.197 89.9048C316.456 90.0838 316.669 90.3139 316.837 90.5952C317.004 90.8764 317.088 91.2216 317.088 91.6307C317.088 92.1023 316.964 92.5284 316.717 92.9091C316.473 93.2898 316.115 93.5923 315.643 93.8168C315.175 94.0412 314.605 94.1534 313.935 94.1534C313.31 94.1534 312.768 94.0526 312.311 93.8509C311.856 93.6491 311.498 93.3679 311.237 93.0071C310.979 92.6463 310.832 92.2273 310.798 91.75H311.889C311.917 92.0795 312.028 92.3523 312.221 92.5682C312.417 92.7812 312.665 92.9403 312.963 93.0455C313.264 93.1477 313.588 93.1989 313.935 93.1989C314.338 93.1989 314.7 93.1335 315.021 93.0028C315.342 92.8693 315.596 92.6847 315.784 92.4489C315.971 92.2102 316.065 91.9318 316.065 91.6136C316.065 91.3239 315.984 91.0881 315.822 90.9062C315.66 90.7244 315.447 90.5767 315.183 90.4631C314.919 90.3494 314.633 90.25 314.327 90.1648L313.253 89.858C312.571 89.6619 312.031 89.3821 311.633 89.0185C311.236 88.6548 311.037 88.179 311.037 87.5909C311.037 87.1023 311.169 86.6761 311.433 86.3125C311.7 85.946 312.058 85.6619 312.507 85.4602C312.959 85.2557 313.463 85.1534 314.02 85.1534C314.582 85.1534 315.082 85.2543 315.52 85.456C315.957 85.6548 316.304 85.9276 316.56 86.2741C316.818 86.6207 316.954 87.0142 316.969 87.4545H315.946ZM321.433 94.1364C320.803 94.1364 320.259 93.9972 319.801 93.7188C319.347 93.4375 318.996 93.0455 318.749 92.5426C318.504 92.0369 318.382 91.4489 318.382 90.7784C318.382 90.108 318.504 89.517 318.749 89.0057C318.996 88.4915 319.34 88.0909 319.78 87.804C320.223 87.5142 320.74 87.3693 321.331 87.3693C321.672 87.3693 322.009 87.4261 322.341 87.5398C322.674 87.6534 322.976 87.8381 323.249 88.0938C323.522 88.3466 323.739 88.6818 323.901 89.0994C324.063 89.517 324.144 90.0312 324.144 90.642V91.0682H319.098V90.1989H323.121C323.121 89.8295 323.047 89.5 322.899 89.2102C322.754 88.9205 322.547 88.6918 322.277 88.5241C322.01 88.3565 321.695 88.2727 321.331 88.2727C320.931 88.2727 320.584 88.3722 320.291 88.571C320.002 88.767 319.779 89.0227 319.622 89.3381C319.466 89.6534 319.388 89.9915 319.388 90.3523V90.9318C319.388 91.4261 319.473 91.8452 319.644 92.1889C319.817 92.5298 320.057 92.7898 320.364 92.9688C320.671 93.1449 321.027 93.233 321.433 93.233C321.698 93.233 321.936 93.196 322.149 93.1222C322.365 93.0455 322.551 92.9318 322.708 92.7812C322.864 92.6278 322.985 92.4375 323.07 92.2102L324.041 92.483C323.939 92.8125 323.767 93.1023 323.526 93.3523C323.284 93.5994 322.986 93.7926 322.631 93.9318C322.276 94.0682 321.877 94.1364 321.433 94.1364ZM325.674 96.4545V87.4545H326.645V88.4943H326.764C326.838 88.3807 326.941 88.2358 327.071 88.0597C327.205 87.8807 327.395 87.7216 327.642 87.5824C327.892 87.4403 328.23 87.3693 328.656 87.3693C329.208 87.3693 329.693 87.5071 330.114 87.7827C330.534 88.0582 330.862 88.4489 331.098 88.9545C331.334 89.4602 331.452 90.0568 331.452 90.7443C331.452 91.4375 331.334 92.0384 331.098 92.5469C330.862 93.0526 330.536 93.4446 330.118 93.723C329.7 93.9986 329.219 94.1364 328.674 94.1364C328.253 94.1364 327.916 94.0668 327.664 93.9276C327.411 93.7855 327.216 93.625 327.08 93.446C326.943 93.2642 326.838 93.1136 326.764 92.9943H326.679V96.4545H325.674ZM326.662 90.7273C326.662 91.2216 326.735 91.6577 326.879 92.0355C327.024 92.4105 327.236 92.7045 327.514 92.9176C327.793 93.1278 328.134 93.233 328.537 93.233C328.958 93.233 329.308 93.1222 329.59 92.9006C329.874 92.6761 330.087 92.375 330.229 91.9972C330.374 91.6165 330.446 91.1932 330.446 90.7273C330.446 90.267 330.375 89.8523 330.233 89.483C330.094 89.1108 329.882 88.8168 329.598 88.6009C329.317 88.3821 328.963 88.2727 328.537 88.2727C328.128 88.2727 327.784 88.3764 327.506 88.5838C327.227 88.7884 327.017 89.0753 326.875 89.4446C326.733 89.8111 326.662 90.2386 326.662 90.7273Z" fill="#475467"/>
<mask id="mask0_1_27089" style="mask-type:alpha" maskUnits="userSpaceOnUse" x="0" y="11" width="467" height="60">
<rect width="467" height="60" transform="translate(0 11)" fill="url(#paint0_linear_1_27089)"/>
</mask>
<g mask="url(#mask0_1_27089)">
<path opacity="0.1" d="M464.099 38.1276L467 38.6348V71.0002H0V7.31079L2.89622 11.7796L5.79762 13.3075L8.69902 10.753L11.6004 5.48099L14.5018 4.06787L17.4032 7.22021L20.3046 14.1771L23.206 22.2149L26.1075 20.0168L29.0089 26.2308L31.9103 32.7106L34.8117 21.5325L37.7131 11.1274L40.6145 14.0563L43.5159 17.4985L46.4173 16.7859L49.3187 15.4332L52.2201 18.8392L55.1215 26.9374L58.0229 26.4482L60.9243 25.1801L63.8257 31.3579L66.7271 21.2547L69.6285 16.8644L72.5299 19.1411L75.4313 28.4049L78.3327 25.9168L81.2341 22.3176L84.1355 17.6132L87.0369 15.5298L89.9383 22.3901L92.8398 13.8389L95.7411 14.5636L98.6426 20.1979L101.544 18.2232L104.445 18.1447L107.347 20.7052L110.248 15.2762L113.15 16.7074L116.051 23.7367L118.952 27.5594L121.854 22.6799L124.755 18.193L127.657 27.336L130.558 31.1647L133.459 30.899L136.361 19.1169L139.262 22.8551L142.164 24.6064L145.065 36.4548L147.966 43.2849L150.868 23.4892L153.769 19.6846L156.671 28.1391L159.572 22.0579L162.473 27.2454L165.375 29.9388L168.276 32.6019L171.178 31.7806L174.079 18.9358L176.98 23.3865L179.882 21.8888L182.783 21.3332L185.685 23.8394L188.586 17.722L191.488 19.8477L194.389 21.2185L197.29 19.8356L200.192 22.9155L202.972 21.768L205.874 20.1375L208.775 20.3066L211.676 24.1112L214.578 19.6001L217.479 24.703L220.381 22.0942L223.282 23.622L226.183 18.7546L229.085 17.1905L231.986 26.2852L234.888 25.4216L237.789 25.9229L240.69 21.7077L243.592 24.8238L246.493 22.4867L249.395 26.9797L252.296 26.4724L255.197 31.0741L258.099 30.0897L261 31.0197L263.902 21.4359L266.803 20.8018L269.705 29.1356L272.606 22.9456L275.507 32.0222L278.409 24.4071L281.31 22.2693L284.212 25.0472L287.113 25.2103L290.014 26.406L292.916 32.3181L295.817 45.4468L298.719 42.3549L301.62 21.1642L304.521 31.0378L307.423 23.7669L310.324 28.1814L313.226 23.314L316.127 26.4362L319.028 33.1696L321.93 35.247L324.831 35.0779L327.733 34.8122L330.634 30.9654L333.535 37.4754L336.437 28.737L339.338 36.2434L342.24 30.3253L345.141 26.3939L348.042 44.2934L350.944 49.7767L353.845 51.4012L356.747 46.2741L359.648 41.0867L362.549 34.7095L365.451 40.6941L368.352 39.0093L371.254 41.2558L374.155 37.0164L377.056 40.0842L379.958 30.911L382.859 28.7914L385.761 38.653L388.662 49.6258L391.564 34.7277L394.465 39.1482L397.366 34.8303L400.268 29.8844L403.169 45.0482L406.07 41.6966L408.972 35.6999L411.873 44.8791L414.775 45.8816L417.676 48.2187L420.578 49.7767L423.479 35.5912L426.38 37.4452L429.282 48.6716L432.183 39.6554L435.085 37.2097L437.986 44.6799L440.887 47.2524L443.789 33.7735L446.69 38.8945L449.592 40.1446L452.493 37.4271L455.394 38.3691L458.296 44.9516L461.197 44.3175L464.099 38.1276Z" fill="#38C793"/>
</g>
<path d="M467 38.6349L464.099 38.1276L461.197 44.3175L458.296 44.9516L455.394 38.3691L452.493 37.4271L449.592 40.1446L446.69 38.8945L443.789 33.7735L440.887 47.2524L437.986 44.6799L435.085 37.2097L432.183 39.6554L429.282 48.6716L426.38 37.4452L423.479 35.5912L420.578 49.7767L417.676 48.2187L414.775 45.8816L411.873 44.8791L408.972 35.6999L406.071 41.6966L403.169 45.0482L400.268 29.8844L397.366 34.8303L394.465 39.1482L391.564 34.7277L388.662 49.6258L385.761 38.653L382.859 28.7914L379.958 30.911L377.056 40.0842L374.155 37.0164L371.254 41.2558L368.352 39.0093L365.451 40.6941L362.549 34.7095L359.648 41.0867L356.747 46.2741L353.845 51.4012L350.944 49.7767L348.042 44.2934L345.141 26.3939L342.24 30.3253L339.338 36.2434L336.437 28.737L333.535 37.4754L330.634 30.9654L327.733 34.8122L324.831 35.0779L321.93 35.247L319.028 33.1696L316.127 26.4362L313.226 23.314L310.324 28.1814L307.423 23.7669L304.521 31.0378L301.62 21.1642L298.719 42.3549L295.817 45.4468L292.916 32.3181L290.014 26.406L287.113 25.2103L284.212 25.0472L281.31 22.2693L278.409 24.4071L275.507 32.0222L272.606 22.9456L269.705 29.1356L266.803 20.8018L263.902 21.4359L261 31.0197L258.099 30.0897L255.197 31.0741L252.296 26.4724L249.395 26.9797L246.493 22.4867L243.592 24.8238L240.69 21.7077L237.789 25.9229L234.888 25.4216L231.986 26.2852L229.085 17.1905L226.183 18.7546L223.282 23.622L220.381 22.0942L217.479 24.703L214.578 19.6001L211.676 24.1112L208.775 20.3066L205.874 20.1375L202.972 21.7681L200.192 22.9155L197.29 19.8356L194.389 21.2185L191.487 19.8477L188.586 17.722L185.685 23.8394L182.783 21.3332L179.882 21.8888L176.98 23.3865L174.079 18.9358L171.178 31.7806L168.276 32.6019L165.375 29.9388L162.473 27.2454L159.572 22.0579L156.671 28.1391L153.769 19.6846L150.868 23.4892L147.966 43.2849L145.065 36.4548L142.164 24.6064L139.262 22.8551L136.361 19.1169L133.459 30.899L130.558 31.1647L127.657 27.336L124.755 18.193L121.854 22.6799L118.952 27.5594L116.051 23.7368L113.15 16.7074L110.248 15.2762L107.347 20.7052L104.445 18.1447L101.544 18.2232L98.6426 20.1979L95.7412 14.5636L92.8397 13.8389L89.9383 22.3901L87.0369 15.5298L84.1355 17.6132L81.2341 22.3176L78.3327 25.9168L75.4313 28.4049L72.5299 19.1411L69.6285 16.8644L66.7271 21.2547L63.8257 31.3579L60.9243 25.1801L58.0229 26.4482L55.1215 26.9374L52.2201 18.8392L49.3187 15.4332L46.4173 16.7859L43.5159 17.4985L40.6145 14.0563L37.7131 11.1274L34.8117 21.5325L31.9103 32.7106L29.0089 26.2308L26.1075 20.0168L23.206 22.2149L20.3046 14.1771L17.4032 7.22021L14.5018 4.06787L11.6004 5.48099L8.69902 10.753L5.79762 13.3075L2.89622 11.7796L0 7.31079" stroke="#38C793" stroke-width="2" stroke-linecap="round" stroke-linejoin="round"/>
<defs>
<linearGradient id="paint0_linear_1_27089" x1="233.5" y1="0" x2="233.5" y2="60" gradientUnits="userSpaceOnUse">
<stop/>
<stop offset="1" stop-opacity="0"/>
</linearGradient>
</defs>
</svg>
