<svg width="469" height="218" viewBox="0 0 469 218" fill="none" xmlns="http://www.w3.org/2000/svg">
<line x1="1.5" y1="10.5" x2="467.5" y2="10.5" stroke="#31353F" stroke-linecap="round"/>
<line x1="1.5" y1="48.6001" x2="467.5" y2="48.6001" stroke="#31353F" stroke-linecap="round"/>
<line x1="1.5" y1="84.2002" x2="467.5" y2="84.2002" stroke="#31353F" stroke-linecap="round"/>
<line x1="1.5" y1="119.8" x2="467.5" y2="119.8" stroke="#31353F" stroke-linecap="round"/>
<line x1="1.5" y1="155.4" x2="467.5" y2="155.4" stroke="#31353F" stroke-linecap="round"/>
<line x1="1.5" y1="191" x2="467.5" y2="191" stroke="#31353F" stroke-linecap="round"/>
<path d="M29.7493 204.273H30.8061V210.511C30.8061 211.068 30.7038 211.541 30.4993 211.93C30.2947 212.32 30.0064 212.615 29.6342 212.817C29.2621 213.018 28.8232 213.119 28.3175 213.119C27.8402 213.119 27.4155 213.033 27.0433 212.859C26.6712 212.683 26.3786 212.433 26.1655 212.109C25.9524 211.786 25.8459 211.401 25.8459 210.955H26.8857C26.8857 211.202 26.9467 211.418 27.0689 211.602C27.1939 211.784 27.3643 211.926 27.5803 212.028C27.7962 212.131 28.0419 212.182 28.3175 212.182C28.6214 212.182 28.88 212.118 29.093 211.99C29.3061 211.862 29.468 211.675 29.5788 211.428C29.6925 211.178 29.7493 210.872 29.7493 210.511V204.273ZM34.7138 213.153C34.299 213.153 33.9226 213.075 33.5845 212.919C33.2464 212.76 32.978 212.531 32.7791 212.233C32.5803 211.932 32.4808 211.568 32.4808 211.142C32.4808 210.767 32.5547 210.463 32.7024 210.23C32.8501 209.994 33.0476 209.81 33.2947 209.676C33.5419 209.543 33.8146 209.443 34.1129 209.378C34.4141 209.31 34.7166 209.256 35.0206 209.216C35.4183 209.165 35.7408 209.126 35.9879 209.101C36.2379 209.072 36.4197 209.026 36.5334 208.96C36.6499 208.895 36.7081 208.781 36.7081 208.619V208.585C36.7081 208.165 36.593 207.838 36.3629 207.605C36.1357 207.372 35.7905 207.256 35.3274 207.256C34.8473 207.256 34.4709 207.361 34.1982 207.571C33.9254 207.781 33.7337 208.006 33.6229 208.244L32.6683 207.903C32.8388 207.506 33.0661 207.196 33.3501 206.974C33.6371 206.75 33.9496 206.594 34.2876 206.506C34.6286 206.415 34.9638 206.369 35.2933 206.369C35.5036 206.369 35.745 206.395 36.0178 206.446C36.2933 206.494 36.5589 206.595 36.8146 206.749C37.0732 206.902 37.2876 207.134 37.4581 207.443C37.6286 207.753 37.7138 208.168 37.7138 208.688V213H36.7081V212.114H36.657C36.5888 212.256 36.4751 212.408 36.3161 212.57C36.157 212.732 35.9453 212.869 35.6811 212.983C35.4169 213.097 35.0945 213.153 34.7138 213.153ZM34.8672 212.25C35.2649 212.25 35.6001 212.172 35.8729 212.016C36.1484 211.859 36.3558 211.658 36.495 211.411C36.6371 211.163 36.7081 210.903 36.7081 210.631V209.71C36.6655 209.761 36.5717 209.808 36.4268 209.851C36.2848 209.891 36.12 209.926 35.9325 209.957C35.7479 209.986 35.5675 210.011 35.3913 210.034C35.218 210.054 35.0774 210.071 34.9695 210.085C34.7081 210.119 34.4638 210.175 34.2365 210.251C34.0121 210.325 33.8303 210.437 33.6911 210.588C33.5547 210.736 33.4865 210.937 33.4865 211.193C33.4865 211.543 33.6158 211.807 33.8743 211.986C34.1357 212.162 34.4666 212.25 34.8672 212.25ZM40.555 209.062V213H39.5494V206.455H40.521V207.477H40.6062C40.7596 207.145 40.9925 206.878 41.305 206.676C41.6175 206.472 42.021 206.369 42.5153 206.369C42.9585 206.369 43.3462 206.46 43.6786 206.642C44.011 206.821 44.2695 207.094 44.4542 207.46C44.6388 207.824 44.7312 208.284 44.7312 208.841V213H43.7255V208.909C43.7255 208.395 43.592 207.994 43.3249 207.707C43.0579 207.418 42.6914 207.273 42.2255 207.273C41.9045 207.273 41.6175 207.342 41.3647 207.482C41.1147 207.621 40.9173 207.824 40.7724 208.091C40.6275 208.358 40.555 208.682 40.555 209.062Z" fill="#475467"/>
<path d="M61.6932 213V204.273H66.9261V205.21H62.75V208.159H66.5341V209.097H62.75V213H61.6932ZM70.8636 213.136C70.2329 213.136 69.6889 212.997 69.2315 212.719C68.777 212.438 68.4261 212.045 68.179 211.543C67.9346 211.037 67.8125 210.449 67.8125 209.778C67.8125 209.108 67.9346 208.517 68.179 208.006C68.4261 207.491 68.7699 207.091 69.2102 206.804C69.6534 206.514 70.1704 206.369 70.7614 206.369C71.1023 206.369 71.4389 206.426 71.7713 206.54C72.1037 206.653 72.4062 206.838 72.679 207.094C72.9517 207.347 73.169 207.682 73.331 208.099C73.4929 208.517 73.5739 209.031 73.5739 209.642V210.068H68.5284V209.199H72.5511C72.5511 208.83 72.4773 208.5 72.3295 208.21C72.1846 207.92 71.9773 207.692 71.7074 207.524C71.4403 207.357 71.125 207.273 70.7614 207.273C70.3608 207.273 70.0142 207.372 69.7216 207.571C69.4318 207.767 69.2088 208.023 69.0525 208.338C68.8963 208.653 68.8182 208.991 68.8182 209.352V209.932C68.8182 210.426 68.9034 210.845 69.0739 211.189C69.2471 211.53 69.4872 211.79 69.794 211.969C70.1008 212.145 70.4574 212.233 70.8636 212.233C71.1278 212.233 71.3665 212.196 71.5795 212.122C71.7954 212.045 71.9815 211.932 72.1378 211.781C72.294 211.628 72.4148 211.437 72.5 211.21L73.4716 211.483C73.3693 211.812 73.1974 212.102 72.956 212.352C72.7145 212.599 72.4162 212.793 72.0611 212.932C71.706 213.068 71.3068 213.136 70.8636 213.136ZM75.24 213V204.273H76.2457V207.494H76.331C76.4048 207.381 76.5071 207.236 76.6378 207.06C76.7713 206.881 76.9616 206.722 77.2088 206.582C77.4588 206.44 77.7969 206.369 78.223 206.369C78.7741 206.369 79.2599 206.507 79.6804 206.783C80.1008 207.058 80.429 207.449 80.6648 207.955C80.9006 208.46 81.0185 209.057 81.0185 209.744C81.0185 210.438 80.9006 211.038 80.6648 211.547C80.429 212.053 80.1023 212.445 79.6846 212.723C79.267 212.999 78.7855 213.136 78.24 213.136C77.8196 213.136 77.4829 213.067 77.2301 212.928C76.9773 212.786 76.7827 212.625 76.6463 212.446C76.5099 212.264 76.4048 212.114 76.331 211.994H76.2116V213H75.24ZM76.2287 209.727C76.2287 210.222 76.3011 210.658 76.446 211.036C76.5909 211.411 76.8025 211.705 77.081 211.918C77.3594 212.128 77.7003 212.233 78.1037 212.233C78.5241 212.233 78.875 212.122 79.1562 211.901C79.4403 211.676 79.6534 211.375 79.7954 210.997C79.9403 210.616 80.0128 210.193 80.0128 209.727C80.0128 209.267 79.9418 208.852 79.7997 208.483C79.6605 208.111 79.4489 207.817 79.1648 207.601C78.8835 207.382 78.5298 207.273 78.1037 207.273C77.6946 207.273 77.3508 207.376 77.0724 207.584C76.794 207.788 76.5838 208.075 76.4418 208.445C76.2997 208.811 76.2287 209.239 76.2287 209.727Z" fill="#475467"/>
<path d="M97.3784 204.273H98.6397L101.606 211.517H101.708L104.674 204.273H105.935V213H104.947V206.369H104.861L102.134 213H101.179L98.4522 206.369H98.367V213H97.3784V204.273ZM109.844 213.153C109.429 213.153 109.053 213.075 108.715 212.919C108.377 212.76 108.108 212.531 107.909 212.233C107.71 211.932 107.611 211.568 107.611 211.142C107.611 210.767 107.685 210.463 107.833 210.23C107.98 209.994 108.178 209.81 108.425 209.676C108.672 209.543 108.945 209.443 109.243 209.378C109.544 209.31 109.847 209.256 110.151 209.216C110.548 209.165 110.871 209.126 111.118 209.101C111.368 209.072 111.55 209.026 111.664 208.96C111.78 208.895 111.838 208.781 111.838 208.619V208.585C111.838 208.165 111.723 207.838 111.493 207.605C111.266 207.372 110.921 207.256 110.458 207.256C109.977 207.256 109.601 207.361 109.328 207.571C109.056 207.781 108.864 208.006 108.753 208.244L107.798 207.903C107.969 207.506 108.196 207.196 108.48 206.974C108.767 206.75 109.08 206.594 109.418 206.506C109.759 206.415 110.094 206.369 110.423 206.369C110.634 206.369 110.875 206.395 111.148 206.446C111.423 206.494 111.689 206.595 111.945 206.749C112.203 206.902 112.418 207.134 112.588 207.443C112.759 207.753 112.844 208.168 112.844 208.688V213H111.838V212.114H111.787C111.719 212.256 111.605 212.408 111.446 212.57C111.287 212.732 111.075 212.869 110.811 212.983C110.547 213.097 110.225 213.153 109.844 213.153ZM109.997 212.25C110.395 212.25 110.73 212.172 111.003 212.016C111.279 211.859 111.486 211.658 111.625 211.411C111.767 211.163 111.838 210.903 111.838 210.631V209.71C111.796 209.761 111.702 209.808 111.557 209.851C111.415 209.891 111.25 209.926 111.063 209.957C110.878 209.986 110.698 210.011 110.521 210.034C110.348 210.054 110.208 210.071 110.1 210.085C109.838 210.119 109.594 210.175 109.367 210.251C109.142 210.325 108.96 210.437 108.821 210.588C108.685 210.736 108.617 210.937 108.617 211.193C108.617 211.543 108.746 211.807 109.004 211.986C109.266 212.162 109.597 212.25 109.997 212.25ZM114.679 213V206.455H115.651V207.443H115.719C115.839 207.119 116.054 206.857 116.367 206.655C116.679 206.453 117.032 206.352 117.424 206.352C117.498 206.352 117.59 206.354 117.701 206.357C117.812 206.359 117.895 206.364 117.952 206.369V207.392C117.918 207.384 117.84 207.371 117.718 207.354C117.599 207.334 117.472 207.324 117.339 207.324C117.02 207.324 116.736 207.391 116.486 207.524C116.239 207.655 116.043 207.837 115.898 208.07C115.756 208.3 115.685 208.562 115.685 208.858V213H114.679Z" fill="#475467"/>
<path d="M134.381 213H133.273L136.477 204.273H137.568L140.773 213H139.665L137.057 205.653H136.988L134.381 213ZM134.79 209.591H139.256V210.528H134.79V209.591ZM141.996 215.455V206.455H142.967V207.494H143.086C143.16 207.381 143.263 207.236 143.393 207.06C143.527 206.881 143.717 206.722 143.964 206.582C144.214 206.44 144.552 206.369 144.979 206.369C145.53 206.369 146.015 206.507 146.436 206.783C146.856 207.058 147.184 207.449 147.42 207.955C147.656 208.46 147.774 209.057 147.774 209.744C147.774 210.438 147.656 211.038 147.42 211.547C147.184 212.053 146.858 212.445 146.44 212.723C146.023 212.999 145.541 213.136 144.996 213.136C144.575 213.136 144.238 213.067 143.986 212.928C143.733 212.786 143.538 212.625 143.402 212.446C143.265 212.264 143.16 212.114 143.086 211.994H143.001V215.455H141.996ZM142.984 209.727C142.984 210.222 143.057 210.658 143.202 211.036C143.346 211.411 143.558 211.705 143.836 211.918C144.115 212.128 144.456 212.233 144.859 212.233C145.28 212.233 145.631 212.122 145.912 211.901C146.196 211.676 146.409 211.375 146.551 210.997C146.696 210.616 146.768 210.193 146.768 209.727C146.768 209.267 146.697 208.852 146.555 208.483C146.416 208.111 146.204 207.817 145.92 207.601C145.639 207.382 145.285 207.273 144.859 207.273C144.45 207.273 144.106 207.376 143.828 207.584C143.55 207.788 143.339 208.075 143.197 208.445C143.055 208.811 142.984 209.239 142.984 209.727ZM149.308 213V206.455H150.28V207.443H150.348C150.467 207.119 150.683 206.857 150.996 206.655C151.308 206.453 151.66 206.352 152.052 206.352C152.126 206.352 152.219 206.354 152.329 206.357C152.44 206.359 152.524 206.364 152.581 206.369V207.392C152.547 207.384 152.469 207.371 152.346 207.354C152.227 207.334 152.101 207.324 151.967 207.324C151.649 207.324 151.365 207.391 151.115 207.524C150.868 207.655 150.672 207.837 150.527 208.07C150.385 208.3 150.314 208.562 150.314 208.858V213H149.308Z" fill="#475467"/>
<path d="M168.661 204.273H169.922L172.888 211.517H172.99L175.956 204.273H177.218V213H176.229V206.369H176.144L173.417 213H172.462L169.735 206.369H169.649V213H168.661V204.273ZM181.126 213.153C180.712 213.153 180.335 213.075 179.997 212.919C179.659 212.76 179.391 212.531 179.192 212.233C178.993 211.932 178.893 211.568 178.893 211.142C178.893 210.767 178.967 210.463 179.115 210.23C179.263 209.994 179.46 209.81 179.707 209.676C179.955 209.543 180.227 209.443 180.526 209.378C180.827 209.31 181.129 209.256 181.433 209.216C181.831 209.165 182.153 209.126 182.401 209.101C182.651 209.072 182.832 209.026 182.946 208.96C183.062 208.895 183.121 208.781 183.121 208.619V208.585C183.121 208.165 183.006 207.838 182.776 207.605C182.548 207.372 182.203 207.256 181.74 207.256C181.26 207.256 180.884 207.361 180.611 207.571C180.338 207.781 180.146 208.006 180.035 208.244L179.081 207.903C179.251 207.506 179.479 207.196 179.763 206.974C180.05 206.75 180.362 206.594 180.7 206.506C181.041 206.415 181.376 206.369 181.706 206.369C181.916 206.369 182.158 206.395 182.43 206.446C182.706 206.494 182.972 206.595 183.227 206.749C183.486 206.902 183.7 207.134 183.871 207.443C184.041 207.753 184.126 208.168 184.126 208.688V213H183.121V212.114H183.07C183.001 212.256 182.888 212.408 182.729 212.57C182.57 212.732 182.358 212.869 182.094 212.983C181.83 213.097 181.507 213.153 181.126 213.153ZM181.28 212.25C181.678 212.25 182.013 212.172 182.285 212.016C182.561 211.859 182.768 211.658 182.908 211.411C183.05 211.163 183.121 210.903 183.121 210.631V209.71C183.078 209.761 182.984 209.808 182.839 209.851C182.697 209.891 182.533 209.926 182.345 209.957C182.16 209.986 181.98 210.011 181.804 210.034C181.631 210.054 181.49 210.071 181.382 210.085C181.121 210.119 180.876 210.175 180.649 210.251C180.425 210.325 180.243 210.437 180.104 210.588C179.967 210.736 179.899 210.937 179.899 211.193C179.899 211.543 180.028 211.807 180.287 211.986C180.548 212.162 180.879 212.25 181.28 212.25ZM186.375 215.455C186.205 215.455 186.053 215.44 185.919 215.412C185.786 215.386 185.694 215.361 185.642 215.335L185.898 214.449C186.142 214.511 186.358 214.534 186.546 214.517C186.733 214.5 186.899 214.416 187.044 214.266C187.192 214.118 187.327 213.878 187.449 213.545L187.637 213.034L185.216 206.455H186.307L188.114 211.67H188.182L189.989 206.455H191.08L188.301 213.955C188.176 214.293 188.022 214.572 187.837 214.794C187.652 215.018 187.438 215.185 187.194 215.293C186.952 215.401 186.679 215.455 186.375 215.455Z" fill="#475467"/>
<path d="M210.826 204.273H211.882V210.511C211.882 211.068 211.78 211.541 211.576 211.93C211.371 212.32 211.083 212.615 210.711 212.817C210.338 213.018 209.9 213.119 209.394 213.119C208.917 213.119 208.492 213.033 208.12 212.859C207.748 212.683 207.455 212.433 207.242 212.109C207.029 211.786 206.922 211.401 206.922 210.955H207.962C207.962 211.202 208.023 211.418 208.145 211.602C208.27 211.784 208.441 211.926 208.657 212.028C208.873 212.131 209.118 212.182 209.394 212.182C209.698 212.182 209.956 212.118 210.169 211.99C210.382 211.862 210.544 211.675 210.655 211.428C210.769 211.178 210.826 210.872 210.826 210.511V204.273ZM217.989 210.324V206.455H218.995V213H217.989V211.892H217.921C217.767 212.224 217.529 212.507 217.205 212.74C216.881 212.97 216.472 213.085 215.978 213.085C215.569 213.085 215.205 212.996 214.887 212.817C214.569 212.635 214.319 212.362 214.137 211.999C213.955 211.632 213.864 211.17 213.864 210.614V206.455H214.87V210.545C214.87 211.023 215.003 211.403 215.27 211.688C215.54 211.972 215.884 212.114 216.301 212.114C216.551 212.114 216.806 212.05 217.064 211.922C217.326 211.794 217.544 211.598 217.721 211.334C217.9 211.07 217.989 210.733 217.989 210.324ZM221.842 209.062V213H220.837V206.455H221.808V207.477H221.893C222.047 207.145 222.28 206.878 222.592 206.676C222.905 206.472 223.308 206.369 223.803 206.369C224.246 206.369 224.634 206.46 224.966 206.642C225.298 206.821 225.557 207.094 225.741 207.46C225.926 207.824 226.018 208.284 226.018 208.841V213H225.013V208.909C225.013 208.395 224.879 207.994 224.612 207.707C224.345 207.418 223.979 207.273 223.513 207.273C223.192 207.273 222.905 207.342 222.652 207.482C222.402 207.621 222.205 207.824 222.06 208.091C221.915 208.358 221.842 208.682 221.842 209.062Z" fill="#475467"/>
<path d="M246.548 204.273H247.605V210.511C247.605 211.068 247.502 211.541 247.298 211.93C247.093 212.32 246.805 212.615 246.433 212.817C246.061 213.018 245.622 213.119 245.116 213.119C244.639 213.119 244.214 213.033 243.842 212.859C243.47 212.683 243.177 212.433 242.964 212.109C242.751 211.786 242.645 211.401 242.645 210.955H243.684C243.684 211.202 243.745 211.418 243.868 211.602C243.993 211.784 244.163 211.926 244.379 212.028C244.595 212.131 244.841 212.182 245.116 212.182C245.42 212.182 245.679 212.118 245.892 211.99C246.105 211.862 246.267 211.675 246.377 211.428C246.491 211.178 246.548 210.872 246.548 210.511V204.273ZM253.711 210.324V206.455H254.717V213H253.711V211.892H253.643C253.49 212.224 253.251 212.507 252.927 212.74C252.603 212.97 252.194 213.085 251.7 213.085C251.291 213.085 250.927 212.996 250.609 212.817C250.291 212.635 250.041 212.362 249.859 211.999C249.677 211.632 249.586 211.17 249.586 210.614V206.455H250.592V210.545C250.592 211.023 250.725 211.403 250.993 211.688C251.262 211.972 251.606 212.114 252.024 212.114C252.274 212.114 252.528 212.05 252.787 211.922C253.048 211.794 253.267 211.598 253.443 211.334C253.622 211.07 253.711 210.733 253.711 210.324ZM257.565 204.273V213H256.559V204.273H257.565Z" fill="#475467"/>
<path d="M275.172 213H274.064L277.269 204.273H278.36L281.564 213H280.456L277.848 205.653H277.78L275.172 213ZM275.581 209.591H280.047V210.528H275.581V209.591ZM286.912 210.324V206.455H287.918V213H286.912V211.892H286.844C286.691 212.224 286.452 212.507 286.128 212.74C285.804 212.97 285.395 213.085 284.901 213.085C284.492 213.085 284.128 212.996 283.81 212.817C283.492 212.635 283.242 212.362 283.06 211.999C282.878 211.632 282.787 211.17 282.787 210.614V206.455H283.793V210.545C283.793 211.023 283.926 211.403 284.193 211.688C284.463 211.972 284.807 212.114 285.225 212.114C285.475 212.114 285.729 212.05 285.987 211.922C286.249 211.794 286.468 211.598 286.644 211.334C286.823 211.07 286.912 210.733 286.912 210.324ZM292.402 215.591C291.916 215.591 291.498 215.528 291.149 215.403C290.8 215.281 290.508 215.119 290.275 214.918C290.045 214.719 289.862 214.506 289.726 214.278L290.527 213.716C290.618 213.835 290.733 213.972 290.872 214.125C291.011 214.281 291.202 214.416 291.443 214.53C291.687 214.646 292.007 214.705 292.402 214.705C292.93 214.705 293.366 214.577 293.71 214.321C294.054 214.065 294.226 213.665 294.226 213.119V211.79H294.14C294.067 211.909 293.962 212.057 293.825 212.233C293.692 212.406 293.498 212.561 293.246 212.697C292.996 212.831 292.658 212.898 292.231 212.898C291.703 212.898 291.229 212.773 290.808 212.523C290.39 212.273 290.06 211.909 289.815 211.432C289.574 210.955 289.453 210.375 289.453 209.693C289.453 209.023 289.571 208.439 289.807 207.942C290.042 207.442 290.371 207.055 290.791 206.783C291.212 206.507 291.697 206.369 292.248 206.369C292.675 206.369 293.013 206.44 293.263 206.582C293.515 206.722 293.709 206.881 293.842 207.06C293.979 207.236 294.084 207.381 294.158 207.494H294.26V206.455H295.231V213.188C295.231 213.75 295.104 214.207 294.848 214.56C294.595 214.915 294.254 215.175 293.825 215.339C293.399 215.507 292.925 215.591 292.402 215.591ZM292.368 211.994C292.771 211.994 293.112 211.902 293.39 211.717C293.669 211.533 293.881 211.267 294.025 210.92C294.17 210.574 294.243 210.159 294.243 209.676C294.243 209.205 294.172 208.788 294.03 208.428C293.888 208.067 293.677 207.784 293.399 207.58C293.121 207.375 292.777 207.273 292.368 207.273C291.942 207.273 291.587 207.381 291.302 207.597C291.021 207.812 290.81 208.102 290.667 208.466C290.528 208.83 290.459 209.233 290.459 209.676C290.459 210.131 290.53 210.533 290.672 210.882C290.817 211.229 291.03 211.501 291.311 211.7C291.595 211.896 291.947 211.994 292.368 211.994Z" fill="#475467"/>
<path d="M316.946 206.455C316.895 206.023 316.687 205.688 316.324 205.449C315.96 205.21 315.514 205.091 314.986 205.091C314.599 205.091 314.261 205.153 313.971 205.278C313.685 205.403 313.46 205.575 313.298 205.794C313.139 206.013 313.06 206.261 313.06 206.54C313.06 206.773 313.115 206.973 313.226 207.141C313.339 207.305 313.484 207.443 313.66 207.554C313.837 207.662 314.021 207.751 314.214 207.822C314.408 207.891 314.585 207.946 314.747 207.989L315.633 208.227C315.861 208.287 316.113 208.369 316.392 208.474C316.673 208.58 316.942 208.723 317.197 208.905C317.456 209.084 317.669 209.314 317.837 209.595C318.004 209.876 318.088 210.222 318.088 210.631C318.088 211.102 317.964 211.528 317.717 211.909C317.473 212.29 317.115 212.592 316.643 212.817C316.175 213.041 315.605 213.153 314.935 213.153C314.31 213.153 313.768 213.053 313.311 212.851C312.856 212.649 312.498 212.368 312.237 212.007C311.979 211.646 311.832 211.227 311.798 210.75H312.889C312.917 211.08 313.028 211.352 313.221 211.568C313.417 211.781 313.665 211.94 313.963 212.045C314.264 212.148 314.588 212.199 314.935 212.199C315.338 212.199 315.7 212.134 316.021 212.003C316.342 211.869 316.596 211.685 316.784 211.449C316.971 211.21 317.065 210.932 317.065 210.614C317.065 210.324 316.984 210.088 316.822 209.906C316.66 209.724 316.447 209.577 316.183 209.463C315.919 209.349 315.633 209.25 315.327 209.165L314.253 208.858C313.571 208.662 313.031 208.382 312.633 208.018C312.236 207.655 312.037 207.179 312.037 206.591C312.037 206.102 312.169 205.676 312.433 205.312C312.7 204.946 313.058 204.662 313.507 204.46C313.959 204.256 314.463 204.153 315.02 204.153C315.582 204.153 316.082 204.254 316.52 204.456C316.957 204.655 317.304 204.928 317.56 205.274C317.818 205.621 317.954 206.014 317.969 206.455H316.946ZM322.433 213.136C321.803 213.136 321.259 212.997 320.801 212.719C320.347 212.438 319.996 212.045 319.749 211.543C319.504 211.037 319.382 210.449 319.382 209.778C319.382 209.108 319.504 208.517 319.749 208.006C319.996 207.491 320.34 207.091 320.78 206.804C321.223 206.514 321.74 206.369 322.331 206.369C322.672 206.369 323.009 206.426 323.341 206.54C323.674 206.653 323.976 206.838 324.249 207.094C324.522 207.347 324.739 207.682 324.901 208.099C325.063 208.517 325.144 209.031 325.144 209.642V210.068H320.098V209.199H324.121C324.121 208.83 324.047 208.5 323.899 208.21C323.754 207.92 323.547 207.692 323.277 207.524C323.01 207.357 322.695 207.273 322.331 207.273C321.931 207.273 321.584 207.372 321.291 207.571C321.002 207.767 320.779 208.023 320.622 208.338C320.466 208.653 320.388 208.991 320.388 209.352V209.932C320.388 210.426 320.473 210.845 320.644 211.189C320.817 211.53 321.057 211.79 321.364 211.969C321.671 212.145 322.027 212.233 322.433 212.233C322.698 212.233 322.936 212.196 323.149 212.122C323.365 212.045 323.551 211.932 323.708 211.781C323.864 211.628 323.985 211.437 324.07 211.21L325.041 211.483C324.939 211.812 324.767 212.102 324.526 212.352C324.284 212.599 323.986 212.793 323.631 212.932C323.276 213.068 322.877 213.136 322.433 213.136ZM326.674 215.455V206.455H327.645V207.494H327.764C327.838 207.381 327.941 207.236 328.071 207.06C328.205 206.881 328.395 206.722 328.642 206.582C328.892 206.44 329.23 206.369 329.656 206.369C330.208 206.369 330.693 206.507 331.114 206.783C331.534 207.058 331.862 207.449 332.098 207.955C332.334 208.46 332.452 209.057 332.452 209.744C332.452 210.438 332.334 211.038 332.098 211.547C331.862 212.053 331.536 212.445 331.118 212.723C330.7 212.999 330.219 213.136 329.674 213.136C329.253 213.136 328.916 213.067 328.664 212.928C328.411 212.786 328.216 212.625 328.08 212.446C327.943 212.264 327.838 212.114 327.764 211.994H327.679V215.455H326.674ZM327.662 209.727C327.662 210.222 327.735 210.658 327.879 211.036C328.024 211.411 328.236 211.705 328.514 211.918C328.793 212.128 329.134 212.233 329.537 212.233C329.958 212.233 330.308 212.122 330.59 211.901C330.874 211.676 331.087 211.375 331.229 210.997C331.374 210.616 331.446 210.193 331.446 209.727C331.446 209.267 331.375 208.852 331.233 208.483C331.094 208.111 330.882 207.817 330.598 207.601C330.317 207.382 329.963 207.273 329.537 207.273C329.128 207.273 328.784 207.376 328.506 207.584C328.227 207.788 328.017 208.075 327.875 208.445C327.733 208.811 327.662 209.239 327.662 209.727Z" fill="#475467"/>
<path d="M356.546 208.636C356.546 209.557 356.38 210.352 356.048 211.023C355.715 211.693 355.259 212.21 354.68 212.574C354.1 212.938 353.438 213.119 352.694 213.119C351.95 213.119 351.288 212.938 350.708 212.574C350.129 212.21 349.673 211.693 349.34 211.023C349.008 210.352 348.842 209.557 348.842 208.636C348.842 207.716 349.008 206.92 349.34 206.25C349.673 205.58 350.129 205.062 350.708 204.699C351.288 204.335 351.95 204.153 352.694 204.153C353.438 204.153 354.1 204.335 354.68 204.699C355.259 205.062 355.715 205.58 356.048 206.25C356.38 206.92 356.546 207.716 356.546 208.636ZM355.523 208.636C355.523 207.881 355.397 207.243 355.144 206.723C354.894 206.203 354.555 205.81 354.126 205.543C353.7 205.276 353.222 205.142 352.694 205.142C352.166 205.142 351.687 205.276 351.258 205.543C350.832 205.81 350.492 206.203 350.239 206.723C349.989 207.243 349.864 207.881 349.864 208.636C349.864 209.392 349.989 210.03 350.239 210.55C350.492 211.07 350.832 211.463 351.258 211.73C351.687 211.997 352.166 212.131 352.694 212.131C353.222 212.131 353.7 211.997 354.126 211.73C354.555 211.463 354.894 211.07 355.144 210.55C355.397 210.03 355.523 209.392 355.523 208.636ZM360.846 213.136C360.232 213.136 359.704 212.991 359.261 212.702C358.817 212.412 358.477 212.013 358.238 211.504C357.999 210.996 357.88 210.415 357.88 209.761C357.88 209.097 358.002 208.51 358.246 208.001C358.494 207.49 358.837 207.091 359.278 206.804C359.721 206.514 360.238 206.369 360.829 206.369C361.289 206.369 361.704 206.455 362.073 206.625C362.442 206.795 362.745 207.034 362.981 207.341C363.217 207.648 363.363 208.006 363.42 208.415H362.414C362.337 208.116 362.167 207.852 361.903 207.622C361.641 207.389 361.289 207.273 360.846 207.273C360.454 207.273 360.11 207.375 359.815 207.58C359.522 207.781 359.293 208.067 359.129 208.436C358.967 208.803 358.886 209.233 358.886 209.727C358.886 210.233 358.965 210.673 359.124 211.048C359.286 211.423 359.514 211.714 359.806 211.922C360.102 212.129 360.448 212.233 360.846 212.233C361.107 212.233 361.344 212.188 361.558 212.097C361.771 212.006 361.951 211.875 362.099 211.705C362.246 211.534 362.352 211.33 362.414 211.091H363.42C363.363 211.477 363.222 211.825 362.998 212.135C362.776 212.442 362.482 212.686 362.116 212.868C361.752 213.047 361.329 213.136 360.846 213.136ZM367.737 206.455V207.307H364.344V206.455H367.737ZM365.333 204.886H366.339V211.125C366.339 211.409 366.38 211.622 366.462 211.764C366.548 211.903 366.656 211.997 366.786 212.045C366.92 212.091 367.06 212.114 367.208 212.114C367.319 212.114 367.41 212.108 367.481 212.097C367.552 212.082 367.609 212.071 367.651 212.062L367.856 212.966C367.788 212.991 367.692 213.017 367.57 213.043C367.448 213.071 367.293 213.085 367.106 213.085C366.822 213.085 366.543 213.024 366.271 212.902C366.001 212.78 365.776 212.594 365.597 212.344C365.421 212.094 365.333 211.778 365.333 211.398V204.886Z" fill="#475467"/>
<path d="M391.521 204.273V213H390.498L385.742 206.148H385.657V213H384.6V204.273H385.623L390.396 211.142H390.481V204.273H391.521ZM396.158 213.136C395.567 213.136 395.049 212.996 394.603 212.714C394.159 212.433 393.813 212.04 393.563 211.534C393.316 211.028 393.192 210.437 393.192 209.761C393.192 209.08 393.316 208.484 393.563 207.976C393.813 207.467 394.159 207.072 394.603 206.791C395.049 206.51 395.567 206.369 396.158 206.369C396.749 206.369 397.266 206.51 397.709 206.791C398.155 207.072 398.502 207.467 398.749 207.976C398.999 208.484 399.124 209.08 399.124 209.761C399.124 210.437 398.999 211.028 398.749 211.534C398.502 212.04 398.155 212.433 397.709 212.714C397.266 212.996 396.749 213.136 396.158 213.136ZM396.158 212.233C396.607 212.233 396.976 212.118 397.266 211.888C397.556 211.658 397.77 211.355 397.909 210.98C398.049 210.605 398.118 210.199 398.118 209.761C398.118 209.324 398.049 208.916 397.909 208.538C397.77 208.161 397.556 207.855 397.266 207.622C396.976 207.389 396.607 207.273 396.158 207.273C395.709 207.273 395.34 207.389 395.05 207.622C394.76 207.855 394.546 208.161 394.407 208.538C394.267 208.916 394.198 209.324 394.198 209.761C394.198 210.199 394.267 210.605 394.407 210.98C394.546 211.355 394.76 211.658 395.05 211.888C395.34 212.118 395.709 212.233 396.158 212.233ZM405.777 206.455L403.357 213H402.334L399.913 206.455H401.004L402.811 211.67H402.879L404.686 206.455H405.777Z" fill="#475467"/>
<path d="M425.094 213H422.401V204.273H425.213C426.06 204.273 426.784 204.447 427.386 204.797C427.989 205.143 428.45 205.642 428.771 206.293C429.092 206.94 429.253 207.716 429.253 208.619C429.253 209.528 429.091 210.311 428.767 210.967C428.443 211.621 427.972 212.124 427.352 212.476C426.733 212.825 425.98 213 425.094 213ZM423.457 212.062H425.026C425.747 212.062 426.345 211.923 426.82 211.645C427.294 211.366 427.648 210.97 427.881 210.456C428.114 209.942 428.23 209.33 428.23 208.619C428.23 207.915 428.115 207.308 427.885 206.8C427.655 206.288 427.311 205.896 426.854 205.624C426.396 205.348 425.827 205.21 425.145 205.21H423.457V212.062ZM433.634 213.136C433.003 213.136 432.459 212.997 432.001 212.719C431.547 212.438 431.196 212.045 430.949 211.543C430.705 211.037 430.582 210.449 430.582 209.778C430.582 209.108 430.705 208.517 430.949 208.006C431.196 207.491 431.54 207.091 431.98 206.804C432.423 206.514 432.94 206.369 433.531 206.369C433.872 206.369 434.209 206.426 434.541 206.54C434.874 206.653 435.176 206.838 435.449 207.094C435.722 207.347 435.939 207.682 436.101 208.099C436.263 208.517 436.344 209.031 436.344 209.642V210.068H431.298V209.199H435.321C435.321 208.83 435.247 208.5 435.099 208.21C434.955 207.92 434.747 207.692 434.477 207.524C434.21 207.357 433.895 207.273 433.531 207.273C433.131 207.273 432.784 207.372 432.491 207.571C432.202 207.767 431.979 208.023 431.822 208.338C431.666 208.653 431.588 208.991 431.588 209.352V209.932C431.588 210.426 431.673 210.845 431.844 211.189C432.017 211.53 432.257 211.79 432.564 211.969C432.871 212.145 433.227 212.233 433.634 212.233C433.898 212.233 434.136 212.196 434.349 212.122C434.565 212.045 434.751 211.932 434.908 211.781C435.064 211.628 435.185 211.437 435.27 211.21L436.241 211.483C436.139 211.812 435.967 212.102 435.726 212.352C435.484 212.599 435.186 212.793 434.831 212.932C434.476 213.068 434.077 213.136 433.634 213.136ZM440.533 213.136C439.919 213.136 439.391 212.991 438.947 212.702C438.504 212.412 438.163 212.013 437.925 211.504C437.686 210.996 437.567 210.415 437.567 209.761C437.567 209.097 437.689 208.51 437.933 208.001C438.18 207.49 438.524 207.091 438.964 206.804C439.408 206.514 439.925 206.369 440.516 206.369C440.976 206.369 441.391 206.455 441.76 206.625C442.129 206.795 442.432 207.034 442.668 207.341C442.903 207.648 443.05 208.006 443.107 208.415H442.101C442.024 208.116 441.854 207.852 441.589 207.622C441.328 207.389 440.976 207.273 440.533 207.273C440.141 207.273 439.797 207.375 439.501 207.58C439.209 207.781 438.98 208.067 438.815 208.436C438.653 208.803 438.572 209.233 438.572 209.727C438.572 210.233 438.652 210.673 438.811 211.048C438.973 211.423 439.2 211.714 439.493 211.922C439.788 212.129 440.135 212.233 440.533 212.233C440.794 212.233 441.031 212.188 441.244 212.097C441.457 212.006 441.638 211.875 441.786 211.705C441.933 211.534 442.038 211.33 442.101 211.091H443.107C443.05 211.477 442.909 211.825 442.685 212.135C442.463 212.442 442.169 212.686 441.803 212.868C441.439 213.047 441.016 213.136 440.533 213.136Z" fill="#475467"/>
<mask id="mask0_1_16928" style="mask-type:alpha" maskUnits="userSpaceOnUse" x="1" y="11" width="467" height="179">
<rect width="467" height="179" transform="translate(1 11)" fill="url(#paint0_linear_1_16928)"/>
</mask>
<g mask="url(#mask0_1_16928)">
<path opacity="0.1" d="M465.099 102.031L468 103.388V190H1V19.5635L3.89622 31.5223L6.79762 35.611L9.69902 28.775L12.6004 14.6668L15.5018 10.8853L18.4032 19.3211L21.3046 37.9381L24.206 59.4478L27.1075 53.5654L30.0089 70.1946L32.9103 87.5349L35.8117 57.6217L38.7131 29.777L41.6145 37.6149L44.5159 46.8264L47.4173 44.9194L50.3187 41.2995L53.2201 50.414L56.1215 72.0854L59.0229 70.7764L61.9243 67.3827L64.8257 83.9149L67.7271 56.8783L70.6285 45.1295L73.5299 51.2221L76.4313 76.0124L79.3327 69.3543L82.2341 59.7225L85.1355 47.1334L88.0369 41.558L90.9383 59.9165L93.8398 37.0331L96.7411 38.9724L99.6426 54.0502L102.544 48.7657L105.445 48.5556L108.347 55.4077L111.248 40.8793L114.15 44.7094L117.051 63.5203L119.952 73.7499L122.854 60.6922L125.755 48.6849L128.657 73.152L131.558 83.3978L134.459 82.6867L137.361 51.1574L140.262 61.1608L143.164 65.8474L146.065 97.5545L148.966 115.832L151.868 62.8577L154.769 52.6765L157.671 75.3013L160.572 59.0276L163.473 72.9096L166.375 80.1172L169.276 87.244L172.178 85.0462L175.079 50.6726L177.98 62.583L180.882 58.5751L183.783 57.0884L186.685 63.795L189.586 47.4243L192.488 53.1129L195.389 56.7813L198.29 53.0805L201.192 61.3224L203.972 58.2519L206.874 53.8886L209.775 54.3411L212.676 64.5222L215.578 52.4503L218.479 66.106L221.381 59.1246L224.282 63.2132L227.183 50.1878L230.085 46.0022L232.986 70.34L235.888 68.0291L238.789 69.3704L241.69 58.0903L244.592 66.4292L247.493 60.175L250.395 72.1985L253.296 70.841L256.197 83.1554L259.099 80.5212L262 83.0099L264.902 57.3631L267.803 55.6662L270.705 77.9678L273.606 61.4032L276.507 85.6926L279.409 65.3141L282.31 59.5933L285.212 67.0271L288.113 67.4635L291.014 70.6633L293.916 86.4845L296.817 121.618L299.719 113.343L302.62 56.6359L305.521 83.0584L308.423 63.6011L311.324 75.4145L314.226 62.389L317.127 70.7441L320.028 88.7631L322.93 94.3224L325.831 93.8699L328.733 93.1588L331.634 82.8645L334.535 100.286L337.437 76.9012L340.338 96.9889L343.24 81.1515L346.141 70.6309L349.042 118.531L351.944 133.205L354.845 137.552L357.747 123.832L360.648 109.95L363.549 92.8841L366.451 108.899L369.352 104.39L372.254 110.402L375.155 99.0574L378.056 107.267L380.958 82.7191L383.859 77.0467L386.761 103.437L389.662 132.801L392.564 92.9325L395.465 104.762L398.366 93.2073L401.268 79.9718L404.169 120.551L407.07 111.582L409.972 95.5344L412.873 120.098L415.775 122.781L418.676 129.035L421.578 133.205L424.479 95.2435L427.38 100.205L430.282 130.247L433.183 106.12L436.085 99.5745L438.986 119.565L441.887 126.45L444.789 90.3792L447.69 104.083L450.592 107.429L453.493 100.156L456.394 102.677L459.296 120.292L462.197 118.596L465.099 102.031Z" fill="#38C793"/>
</g>
<path d="M468 103.388L465.099 102.031L462.197 118.596L459.296 120.292L456.394 102.677L453.493 100.156L450.592 107.429L447.69 104.083L444.789 90.3792L441.887 126.45L438.986 119.565L436.085 99.5746L433.183 106.12L430.282 130.247L427.38 100.205L424.479 95.2435L421.578 133.205L418.676 129.035L415.775 122.781L412.873 120.099L409.972 95.5344L407.071 111.582L404.169 120.551L401.268 79.9718L398.366 93.2073L395.465 104.762L392.564 92.9326L389.662 132.801L386.761 103.437L383.859 77.0467L380.958 82.7191L378.056 107.267L375.155 99.0574L372.254 110.402L369.352 104.39L366.451 108.899L363.549 92.8841L360.648 109.95L357.747 123.832L354.845 137.552L351.944 133.205L349.042 118.531L346.141 70.6309L343.24 81.1515L340.338 96.9889L337.437 76.9013L334.535 100.286L331.634 82.8645L328.733 93.1588L325.831 93.8699L322.93 94.3224L320.028 88.7631L317.127 70.7441L314.226 62.389L311.324 75.4145L308.423 63.6011L305.521 83.0584L302.62 56.6359L299.719 113.343L296.817 121.618L293.916 86.4845L291.014 70.6633L288.113 67.4635L285.212 67.0271L282.31 59.5933L279.409 65.3141L276.507 85.6926L273.606 61.4032L270.705 77.9679L267.803 55.6662L264.902 57.3631L262 83.01L259.099 80.5212L256.197 83.1554L253.296 70.841L250.395 72.1985L247.493 60.175L244.592 66.4292L241.69 58.0903L238.789 69.3704L235.888 68.0291L232.986 70.3401L230.085 46.0022L227.183 50.1878L224.282 63.2132L221.381 59.1246L218.479 66.106L215.578 52.4503L212.676 64.5222L209.775 54.3411L206.874 53.8886L203.972 58.2519L201.192 61.3224L198.29 53.0805L195.389 56.7813L192.487 53.1129L189.586 47.4243L186.685 63.795L183.783 57.0884L180.882 58.5751L177.98 62.583L175.079 50.6726L172.178 85.0462L169.276 87.244L166.375 80.1172L163.473 72.9096L160.572 59.0276L157.671 75.3014L154.769 52.6765L151.868 62.8577L148.966 115.832L146.065 97.5545L143.164 65.8474L140.262 61.1608L137.361 51.1574L134.459 82.6867L131.558 83.3978L128.657 73.152L125.755 48.6849L122.854 60.6922L119.952 73.7499L117.051 63.5203L114.15 44.7094L111.248 40.8793L108.347 55.4077L105.445 48.5556L102.544 48.7657L99.6426 54.0502L96.7412 38.9724L93.8397 37.0331L90.9383 59.9165L88.0369 41.558L85.1355 47.1335L82.2341 59.7225L79.3327 69.3543L76.4313 76.0124L73.5299 51.2221L70.6285 45.1295L67.7271 56.8783L64.8257 83.9149L61.9243 67.3827L59.0229 70.7764L56.1215 72.0854L53.2201 50.414L50.3187 41.2995L47.4173 44.9194L44.5159 46.8264L41.6145 37.6149L38.7131 29.777L35.8117 57.6217L32.9103 87.5349L30.0089 70.1946L27.1075 53.5654L24.206 59.4478L21.3046 37.9381L18.4032 19.3211L15.5018 10.8853L12.6004 14.6668L9.69902 28.775L6.79762 35.611L3.89622 31.5223L1 19.5635" stroke="#38C793" stroke-width="2" stroke-linecap="round" stroke-linejoin="round"/>
<defs>
<linearGradient id="paint0_linear_1_16928" x1="233.5" y1="0" x2="233.5" y2="179" gradientUnits="userSpaceOnUse">
<stop/>
<stop offset="1" stop-opacity="0"/>
</linearGradient>
</defs>
</svg>
