<svg width="151" height="114" viewBox="0 0 151 114" fill="none" xmlns="http://www.w3.org/2000/svg">
<path opacity="0.2" d="M187.456 87.3789C187.456 139.007 145.705 181 93.8281 181C72.5856 181 53.0748 173.838 37.2622 161.981V150.615C37.2622 147.9 39.4855 145.427 42.4499 145.427H152.625C153.525 145.436 154.411 145.206 155.194 144.76C155.976 144.315 156.626 143.67 157.078 142.891C157.53 142.113 157.768 141.228 157.766 140.328C157.765 139.428 157.525 138.544 157.071 137.767L146.446 119.254C145.958 118.515 145.299 117.905 144.525 117.474C143.751 117.044 142.885 116.806 142 116.781H42.6994C41.3259 116.789 40.0108 117.338 39.0396 118.309C38.0684 119.28 37.5193 120.595 37.5116 121.969V132.344C37.5288 133.03 37.4063 133.712 37.1516 134.349C36.897 134.987 36.5155 135.565 36.0303 136.05C35.5451 136.536 34.9664 136.917 34.3293 137.172C33.6921 137.426 33.0099 137.549 32.3239 137.532H14.7869C12.3076 133.684 10.1574 129.634 8.35916 125.425H32.3239C33.0099 125.442 33.6921 125.319 34.3293 125.065C34.9664 124.81 35.5451 124.428 36.0303 123.943C36.5155 123.458 36.897 122.879 37.1516 122.242C37.4063 121.605 37.5288 120.923 37.5116 120.237V109.861C37.5116 107.147 39.735 104.674 42.6994 104.674H129.159C130.058 104.682 130.943 104.451 131.725 104.006C132.506 103.561 133.155 102.917 133.607 102.14C134.059 101.362 134.297 100.479 134.296 99.58C134.296 98.6809 134.058 97.7978 133.605 97.0206L122.981 78.493C122.492 77.7543 121.833 77.1439 121.059 76.7135C120.285 76.2831 119.419 76.0454 118.534 76.0202H42.6994C41.3259 76.028 40.0108 76.577 39.0396 77.5482C38.0684 78.5194 37.5193 79.8345 37.5116 81.208V91.5834C37.5288 92.2693 37.4063 92.9516 37.1516 93.5887C36.897 94.2259 36.5155 94.8046 36.0303 95.2898C35.5451 95.775 34.9664 96.1565 34.3293 96.4111C33.6921 96.6657 33.0099 96.7882 32.3239 96.7711H0.698654C0.411718 93.8148 0.247702 90.8478 0.207031 87.8779V84.664H32.0744C32.7604 84.6811 33.4426 84.5586 34.0798 84.304C34.7169 84.0493 35.2957 83.6678 35.7808 83.1827C36.266 82.6975 36.6475 82.1187 36.9021 81.4816C37.1568 80.8445 37.2793 80.1622 37.2622 79.4763V69.1008C37.245 68.4149 37.3675 67.7327 37.6222 67.0955C37.8768 66.4584 38.2583 65.8796 38.7435 65.3945C39.2287 64.9093 39.8074 64.5278 40.4446 64.2731C41.0817 64.0185 41.7639 63.896 42.4499 63.9131H105.194C106.093 63.9211 106.978 63.6908 107.76 63.2458C108.541 62.8007 109.191 62.1567 109.642 61.3793C110.094 60.6018 110.332 59.7186 110.332 58.8194C110.331 57.9202 110.093 57.0371 109.641 56.26L99.2653 37.4756C98.7761 36.7382 98.1168 36.1293 97.3429 35.7002C96.569 35.2711 95.7032 35.0344 94.8187 35.0101H42.6994C41.3271 35.0178 40.0132 35.5658 39.0422 36.5355C38.0712 37.5051 37.5213 38.8183 37.5116 40.1905V50.5733C37.5288 51.2592 37.4063 51.9415 37.1516 52.5786C36.897 53.2157 36.5155 53.7945 36.0303 54.2797C35.5451 54.7648 34.9664 55.1463 34.3293 55.401C33.6921 55.6556 33.0099 55.7781 32.3239 55.761H5.89371C7.37592 51.5639 9.10026 47.6162 11.3236 43.6539H32.3239C33.0092 43.671 33.6909 43.5487 34.3275 43.2945C34.9641 43.0403 35.5425 42.6595 36.0276 42.1751C36.5127 41.6907 36.8943 41.1128 37.1494 40.4766C37.4045 39.8403 37.5278 39.1588 37.5116 38.4735V28.0907C37.5116 25.3758 39.735 22.903 42.6994 22.903H81.9778C82.878 22.9117 83.7645 22.6817 84.5468 22.2362C85.3292 21.7908 85.9794 21.1459 86.4314 20.3673C86.8833 19.5887 87.1208 18.7042 87.1196 17.804C87.1183 16.9037 86.8785 16.0199 86.4244 15.2425L75.7995 -3.28507C75.55 -3.52721 75.55 -3.77669 75.3079 -4.01883C81.2367 -5.26623 87.6571 -6 94.0776 -6C145.463 -6 187.456 35.7512 187.456 87.3789Z" fill="#F46C31"/>
</svg>
