<svg width="173" height="24" viewBox="0 0 173 24" fill="none" xmlns="http://www.w3.org/2000/svg">
<path d="M23.3137 11.6549C23.3137 17.8491 18.3045 22.8873 12.0805 22.8873C9.53186 22.8873 7.19102 22.0281 5.29386 20.6054V19.2418C5.29386 18.916 5.56061 18.6194 5.91627 18.6194H19.1347C19.2427 18.6204 19.3491 18.5928 19.4429 18.5394C19.5368 18.4859 19.6148 18.4086 19.669 18.3151C19.7233 18.2217 19.7518 18.1156 19.7516 18.0076C19.7515 17.8996 19.7227 17.7935 19.6682 17.7003L18.3935 15.4792C18.3349 15.3905 18.2558 15.3173 18.1629 15.2657C18.0701 15.214 17.9662 15.1855 17.86 15.1825H5.9462C5.78141 15.1834 5.62364 15.2493 5.50711 15.3658C5.39059 15.4823 5.32472 15.6401 5.32379 15.8049V17.0497C5.32585 17.132 5.31115 17.2139 5.2806 17.2903C5.25005 17.3667 5.20428 17.4362 5.14607 17.4944C5.08786 17.5526 5.01842 17.5984 4.94198 17.6289C4.86554 17.6595 4.78368 17.6742 4.70139 17.6721H2.59735C2.29989 17.2105 2.04191 16.7246 1.82617 16.2195H4.70139C4.78368 16.2216 4.86554 16.2069 4.94198 16.1763C5.01842 16.1458 5.08786 16.1 5.14607 16.0418C5.20428 15.9836 5.25005 15.9142 5.2806 15.8377C5.31115 15.7613 5.32585 15.6794 5.32379 15.5971V14.3523C5.32379 14.0266 5.59054 13.7299 5.9462 13.7299H16.3194C16.4272 13.7309 16.5334 13.7032 16.6272 13.6498C16.7209 13.5964 16.7988 13.5192 16.853 13.4259C16.9072 13.3326 16.9358 13.2267 16.9357 13.1188C16.9357 13.0109 16.9071 12.9049 16.8528 12.8117L15.5781 10.5888C15.5195 10.5002 15.4404 10.427 15.3476 10.3753C15.2547 10.3237 15.1508 10.2952 15.0446 10.2921H5.9462C5.78141 10.2931 5.62364 10.3589 5.50711 10.4755C5.39059 10.592 5.32472 10.7498 5.32379 10.9146V12.1594C5.32585 12.2417 5.31115 12.3235 5.2806 12.4C5.25005 12.4764 5.20428 12.5458 5.14607 12.604C5.08786 12.6623 5.01842 12.708 4.94198 12.7386C4.86554 12.7691 4.78368 12.7838 4.70139 12.7818H0.907082C0.872656 12.4271 0.852978 12.0711 0.848099 11.7148V11.3292H4.67146C4.75375 11.3312 4.83561 11.3166 4.91205 11.286C4.98849 11.2554 5.05793 11.2097 5.11614 11.1515C5.17435 11.0933 5.22012 11.0238 5.25067 10.9474C5.28122 10.8709 5.29592 10.7891 5.29386 10.7068V9.46197C5.29181 9.37968 5.3065 9.29782 5.33706 9.22138C5.36761 9.14494 5.41338 9.0755 5.47159 9.01729C5.5298 8.95908 5.59923 8.91331 5.67568 8.88276C5.75212 8.85221 5.83397 8.83751 5.91627 8.83957H13.4441C13.552 8.84052 13.6582 8.8129 13.752 8.7595C13.8457 8.70611 13.9236 8.62884 13.9778 8.53556C14.032 8.44228 14.0605 8.33632 14.0605 8.22844C14.0605 8.12055 14.0319 8.01461 13.9776 7.92136L12.7328 5.66767C12.6741 5.5792 12.595 5.50614 12.5022 5.45466C12.4093 5.40318 12.3054 5.37479 12.1993 5.37187H5.9462C5.78157 5.37279 5.62392 5.43854 5.50742 5.55488C5.39092 5.67121 5.32495 5.82876 5.32379 5.9934V7.23909C5.32585 7.32139 5.31115 7.40324 5.2806 7.47969C5.25005 7.55613 5.20428 7.62556 5.14607 7.68377C5.08786 7.74198 5.01842 7.78775 4.94198 7.81831C4.86554 7.84886 4.78368 7.86355 4.70139 7.8615H1.53037C1.7082 7.35794 1.91508 6.88431 2.18183 6.40892H4.70139C4.78361 6.41097 4.86539 6.3963 4.94177 6.3658C5.01815 6.33531 5.08755 6.28962 5.14574 6.2315C5.20394 6.17338 5.24973 6.10406 5.28034 6.02772C5.31094 5.95138 5.32573 5.86962 5.32379 5.7874V4.5417C5.32379 4.21597 5.59054 3.91929 5.9462 3.91929H10.6587C10.7667 3.92034 10.8731 3.89274 10.9669 3.8393C11.0608 3.78586 11.1388 3.70849 11.193 3.61507C11.2473 3.52166 11.2758 3.41554 11.2756 3.30753C11.2755 3.19952 11.2467 3.09348 11.1922 3.00021L9.91746 0.777328C9.88752 0.748277 9.88752 0.718345 9.85847 0.689293C10.5698 0.539634 11.3401 0.451599 12.1104 0.451599C18.2755 0.451599 23.3137 5.46079 23.3137 11.6549Z" fill="#F46C31"/>
<path d="M30.8113 18.6797H28.4106L33.9823 4.33441H37.3012L42.9029 18.6797H40.3842L36.6199 9.07685L35.7017 6.40939H35.5238L34.5748 9.07685L30.8113 18.6797ZM40.1765 14.9453H31.1969V12.9002H40.1765V14.9453ZM48.7123 18.8866C47.1409 18.8866 45.985 18.5899 45.1848 17.9675C44.3845 17.3451 43.9998 16.397 43.9998 15.1231V15.0632H46.2518V15.4488C46.2518 15.8344 46.3116 16.1302 46.4595 16.3679C46.6074 16.6047 46.8451 16.7817 47.2298 16.8715C47.5855 16.9595 48.119 17.0194 48.7713 17.0194C49.3347 17.0194 49.7793 16.9894 50.0751 16.9014C50.3718 16.8125 50.5496 16.6936 50.6685 16.5158C50.7565 16.338 50.8164 16.1302 50.8164 15.8643C50.8164 15.4189 50.6685 15.1231 50.3718 14.9453C50.0751 14.7674 49.5416 14.6195 48.7414 14.4708L47.0819 14.145C46.506 14.048 45.947 13.8683 45.4225 13.6115C44.9799 13.3813 44.6104 13.0323 44.3555 12.6035C44.0887 12.159 43.9699 11.6554 43.9699 11.033C43.9699 10.084 44.3555 9.31367 45.1258 8.72119C45.8961 8.12784 46.9631 7.83204 48.3567 7.83204C49.2159 7.83204 49.9571 7.97994 50.6086 8.24668C51.2601 8.51343 51.7645 8.92807 52.18 9.46157C52.5647 9.99506 52.7725 10.6764 52.7725 11.5066V11.7144H50.5496V11.4476C50.5496 11.092 50.4906 10.7962 50.3718 10.5585C50.2529 10.3208 50.0461 10.1139 49.7203 9.96601C49.3937 9.81723 48.9192 9.75824 48.2968 9.75824C47.4675 9.75824 46.9041 9.87709 46.6074 10.084C46.3116 10.2917 46.1928 10.6175 46.1928 11.062C46.1928 11.4476 46.3116 11.7443 46.5784 11.9221C46.8152 12.1 47.3187 12.2479 48.0899 12.3958L49.8973 12.7514C50.5796 12.8703 51.172 13.0772 51.6166 13.3448C52.0902 13.6115 52.4468 13.9373 52.6836 14.3519C52.9213 14.7674 53.0392 15.271 53.0392 15.8635C53.0392 16.8415 52.6537 17.6118 51.9124 18.1753C51.113 18.6198 50.0751 18.8866 48.7123 18.8866ZM59.3223 18.8866C57.7518 18.8866 56.5959 18.5899 55.7956 17.9675C54.9954 17.3451 54.6107 16.397 54.6107 15.1231V15.0632H56.8626V15.4488C56.8626 15.8344 56.9216 16.1302 57.0704 16.3679C57.2183 16.6047 57.4551 16.7817 57.8407 16.8715C58.1963 16.9595 58.7298 17.0194 59.3813 17.0194C59.9447 17.0194 60.3893 16.9894 60.686 16.9014C60.9826 16.8125 61.1895 16.6936 61.2784 16.5158C61.3673 16.338 61.4272 16.1302 61.4272 15.8643C61.4272 15.4189 61.2784 15.1231 60.9826 14.9453C60.686 14.7674 60.1525 14.6195 59.3522 14.4708L57.6928 14.145C57.1165 14.0481 56.5573 13.8684 56.0324 13.6115C55.5588 13.3738 55.2331 13.0481 54.9655 12.6035C54.6987 12.1889 54.5807 11.6554 54.5807 11.033C54.5807 10.084 54.9663 9.31367 55.7366 8.72119C56.5069 8.12784 57.5739 7.83204 58.9675 7.83204C59.8267 7.83204 60.5671 7.97994 61.2194 8.24668C61.847 8.4956 62.3914 8.91674 62.79 9.46157C63.1756 9.99506 63.3833 10.6764 63.3833 11.5066V11.7144H61.1605V11.4476C61.1605 11.092 61.1006 10.7962 60.9826 10.5585C60.8638 10.3208 60.6569 10.1139 60.3303 9.96601C60.0046 9.81723 59.5301 9.75824 58.9077 9.75824C58.0775 9.75824 57.5149 9.87709 57.2183 10.084C56.9216 10.2917 56.8036 10.6175 56.8036 11.062C56.8036 11.4476 56.9216 11.7443 57.1883 11.9221C57.426 12.1 57.9296 12.2479 58.6999 12.3958L60.5081 12.7514C61.1895 12.8703 61.7829 13.0772 62.2274 13.3448C62.672 13.6115 63.0567 13.9373 63.2944 14.3519C63.5312 14.7674 63.6501 15.271 63.6501 15.8635C63.6501 16.8415 63.2645 17.6118 62.5233 18.1753C61.723 18.6198 60.6569 18.8866 59.3223 18.8866ZM70.17 18.8866C68.9841 18.8866 68.036 18.6489 67.2648 18.1753C66.5094 17.7181 65.9182 17.0332 65.5763 16.2191C65.1907 15.3898 65.0129 14.4408 65.0129 13.3149C65.0129 12.2179 65.2206 11.2399 65.6353 10.4097C66.0499 9.58041 66.6433 8.92807 67.4136 8.4835C68.1839 8.00987 69.103 7.80211 70.14 7.80211C71.0882 7.80211 71.9483 7.97994 72.6596 8.3356C73.3694 8.68602 73.9653 9.23061 74.378 9.90614C74.7936 10.5884 75.0004 11.4177 75.0004 12.4257C75.0004 12.6924 75.0004 12.9592 74.9714 13.2259C74.9415 13.4927 74.9115 13.7004 74.8825 13.8774H66.0499V12.3069H72.9853L72.7476 12.5146C72.8075 11.8632 72.7476 11.3288 72.5707 10.9141C72.3769 10.5128 72.053 10.1888 71.6516 9.99506C71.2369 9.78818 70.7035 9.69926 70.081 9.69926C68.9542 9.69926 68.1839 9.99506 67.7692 10.5585C67.3546 11.1219 67.1468 11.9221 67.1468 12.9002V13.5226C67.1468 14.2339 67.2349 14.8255 67.4136 15.33C67.5914 15.8344 67.8872 16.1901 68.3318 16.4269C68.7772 16.6646 69.3997 16.7825 70.17 16.7825C71.0591 16.7825 71.7106 16.6338 72.0662 16.367C72.4518 16.0712 72.6297 15.7156 72.6297 15.2411V15.0632H74.9115V15.271C74.9115 16.0114 74.7046 16.6347 74.319 17.1681C73.9334 17.7008 73.3709 18.1163 72.6596 18.4121C71.9483 18.7088 71.148 18.8866 70.17 18.8866ZM83.3585 9.96601H76.0674V8.04068H83.3585V9.96601ZM81.4323 18.6797C80.2464 18.6797 79.3573 18.442 78.7349 17.9384C78.1125 17.4349 77.8158 16.6047 77.8158 15.3898V8.24668L78.3493 5.37234H80.0985V15.271C80.0985 15.8344 80.2464 16.1901 80.5123 16.338C80.7799 16.4859 81.3134 16.5757 82.0247 16.5757H83.2995V18.4719C83.0917 18.5019 82.795 18.5609 82.4693 18.5908C82.1436 18.6207 81.8179 18.6797 81.4323 18.6797ZM87.063 18.6797H84.9299V4.33441H87.2417V15.8635L87.0348 16.1302V18.6797H87.063ZM90.7384 18.8866C89.8194 18.8866 89.049 18.7088 88.4557 18.3531C87.8632 17.9974 87.4186 17.5238 87.1528 16.8715H86.7373L86.8552 14.2929H87.2707C87.2707 14.8854 87.3896 15.3599 87.5965 15.7745C87.8042 16.1601 88.1599 16.4568 88.5745 16.6347C89.0191 16.8125 89.5227 16.9014 90.1451 16.9014C90.6495 16.9014 91.0941 16.8415 91.4498 16.6936C91.8054 16.5457 92.1311 16.3679 92.368 16.0712C92.6057 15.8045 92.7835 15.4198 92.9015 14.9743C93.0203 14.5297 93.0502 13.9672 93.0502 13.3149C93.0502 12.6634 92.9904 12.1 92.9015 11.6554C92.7835 11.2108 92.6347 10.8252 92.3979 10.5585C92.1592 10.2857 91.8524 10.0813 91.5087 9.96601C91.0783 9.82525 90.6279 9.75509 90.175 9.75824C89.5526 9.75824 89.049 9.84716 88.6045 10.025C88.1859 10.1847 87.8387 10.4897 87.6264 10.8842C87.4186 11.2698 87.3007 11.7734 87.3007 12.3667H86.8851L86.7663 9.69926H87.3597C87.5974 9.22475 88.0111 8.78017 88.6335 8.39546C89.2269 8.00987 89.9972 7.80211 90.9753 7.80211C92.4278 7.80211 93.5239 8.30655 94.295 9.31367C95.0654 10.3217 95.421 11.6554 95.421 13.3448C95.421 15.0342 95.0354 16.3679 94.2352 17.375C93.376 18.383 92.25 18.8866 90.7384 18.8866ZM100.134 18.8866C99.1555 18.8866 98.3552 18.6489 97.7029 18.1462C97.0514 17.6708 96.7248 16.9604 96.7248 16.0122C96.7248 15.4189 96.8736 14.9453 97.1403 14.5297C97.4071 14.1151 97.8217 13.7894 98.3552 13.5525C98.9671 13.2796 99.6164 13.0995 100.281 13.0182L104.224 12.4548V14.1151L100.637 14.6186C100.015 14.7076 99.6 14.8563 99.3632 15.0342C99.1255 15.212 99.0076 15.4788 99.0076 15.8934C99.0076 16.308 99.1555 16.6047 99.4521 16.8125C99.7479 17.0194 100.222 17.1083 100.904 17.1083C101.416 17.1018 101.926 17.0218 102.415 16.8706C102.89 16.6936 103.305 16.4269 103.601 16.0122C103.898 15.6266 104.076 15.0632 104.076 14.3519L104.372 17.0792L104.046 17.0493C103.838 17.375 103.571 17.6717 103.216 17.9675C102.86 18.2642 102.415 18.4719 101.942 18.6498C101.352 18.8073 100.744 18.8864 100.134 18.8866ZM106.209 18.6788H104.076V16.5748L104.016 15.9823V11.8922C104.016 11.092 103.838 10.5585 103.453 10.2618C103.068 9.966 102.475 9.84804 101.615 9.84804C100.786 9.84804 100.163 9.99506 99.8078 10.2917C99.4521 10.5884 99.2743 11.092 99.2743 11.8033V12.129H97.0514V11.9221C97.0514 11.151 97.2583 10.4396 97.6439 9.81811C98.0295 9.19482 98.592 8.72119 99.3034 8.36553C100.015 8.00987 100.845 7.83204 101.764 7.83204C102.742 7.83204 103.571 8.00987 104.224 8.39546C104.876 8.78017 105.38 9.28462 105.735 9.93607C106.091 10.5875 106.239 11.3587 106.239 12.2479V18.6797L106.209 18.6788ZM112.907 18.8866C111.336 18.8866 110.18 18.5899 109.38 17.9675C108.58 17.3451 108.195 16.397 108.195 15.1231V15.0632H110.447V15.4488C110.447 15.8344 110.507 16.1302 110.655 16.3679C110.802 16.6047 111.04 16.7817 111.425 16.8715C111.781 16.9595 112.314 17.0194 112.966 17.0194C113.53 17.0194 113.974 16.9894 114.27 16.9014C114.567 16.8125 114.745 16.6936 114.864 16.5158C114.952 16.338 115.011 16.1302 115.011 15.8643C115.011 15.4189 114.864 15.1231 114.567 14.9453C114.27 14.7674 113.737 14.6195 112.936 14.4708L111.277 14.145C110.701 14.0482 110.142 13.8685 109.618 13.6115C109.175 13.3813 108.806 13.0322 108.551 12.6035C108.284 12.159 108.165 11.6554 108.165 11.033C108.165 10.084 108.551 9.31367 109.321 8.72119C110.091 8.12784 111.158 7.83204 112.552 7.83204C113.411 7.83204 114.152 7.97994 114.804 8.24668C115.456 8.51343 115.96 8.92807 116.374 9.46157C116.76 9.99506 116.968 10.6764 116.968 11.5066V11.7144H114.745V11.4476C114.745 11.092 114.686 10.7962 114.567 10.5585C114.448 10.3208 114.241 10.1139 113.915 9.96601C113.589 9.81723 113.114 9.75824 112.492 9.75824C111.663 9.75824 111.099 9.87709 110.802 10.084C110.507 10.2917 110.388 10.6175 110.388 11.062C110.388 11.4476 110.507 11.7443 110.773 11.9221C111.01 12.1 111.514 12.2479 112.285 12.3958L114.092 12.7514C114.775 12.8703 115.367 13.0772 115.812 13.3448C116.285 13.6115 116.641 13.9373 116.879 14.3519C117.115 14.7674 117.234 15.271 117.234 15.8635C117.234 16.8415 116.849 17.6118 116.107 18.1753C115.307 18.6198 114.241 18.8866 112.907 18.8866ZM123.755 18.8866C122.569 18.8866 121.621 18.6489 120.85 18.1753C120.094 17.7183 119.503 17.0334 119.161 16.2191C118.776 15.3898 118.598 14.4408 118.598 13.3149C118.598 12.2179 118.806 11.2399 119.22 10.4097C119.635 9.58041 120.227 8.92807 120.999 8.4835C121.769 8.00987 122.688 7.80211 123.725 7.80211C124.673 7.80211 125.533 7.97994 126.245 8.3356C126.955 8.6859 127.551 9.23052 127.963 9.90614C128.379 10.5884 128.586 11.4177 128.586 12.4257C128.586 12.6924 128.586 12.9592 128.556 13.2259C128.527 13.4927 128.497 13.7004 128.468 13.8774H119.635V12.3069H126.57L126.334 12.5146C126.393 11.8632 126.334 11.3288 126.156 10.9141C125.962 10.5129 125.638 10.189 125.237 9.99506C124.822 9.78818 124.289 9.69926 123.666 9.69926C122.539 9.69926 121.769 9.99506 121.354 10.5585C120.939 11.1219 120.732 11.9221 120.732 12.9002V13.5226C120.732 14.2339 120.821 14.8255 120.999 15.33C121.177 15.8344 121.472 16.1901 121.917 16.4269C122.361 16.6646 122.984 16.7825 123.755 16.7825C124.644 16.7825 125.296 16.6338 125.651 16.367C126.037 16.0712 126.215 15.7156 126.215 15.2411V15.0632H128.497V15.271C128.497 16.0114 128.29 16.6347 127.904 17.1681C127.519 17.7008 126.956 18.1163 126.245 18.4121C125.533 18.7088 124.733 18.8866 123.755 18.8866Z" fill="white"/>
<rect x="134.264" y="1.33246" width="38.6385" height="21.1284" rx="5.28209" fill="#1EA456"/>
<path d="M141.859 16.3598V6.83602H143.25V10.3749H143.333C143.414 10.2261 143.53 10.054 143.682 9.85871C143.834 9.6634 144.045 9.49289 144.315 9.34718C144.584 9.19837 144.941 9.12396 145.384 9.12396C145.961 9.12396 146.475 9.26967 146.928 9.56109C147.381 9.85251 147.736 10.2726 147.993 10.8213C148.253 11.37 148.384 12.0304 148.384 12.8023C148.384 13.5743 148.255 14.2362 147.998 14.788C147.74 15.3367 147.387 15.7599 146.937 16.0575C146.488 16.3521 145.975 16.4993 145.398 16.4993C144.964 16.4993 144.609 16.4265 144.333 16.2807C144.06 16.135 143.846 15.9645 143.691 15.7692C143.536 15.5739 143.417 15.4003 143.333 15.2484H143.217V16.3598H141.859ZM143.222 12.7884C143.222 13.2906 143.295 13.7308 143.44 14.1091C143.586 14.4873 143.797 14.7834 144.073 14.9973C144.349 15.2081 144.687 15.3135 145.087 15.3135C145.502 15.3135 145.849 15.2034 146.128 14.9833C146.407 14.7601 146.618 14.4578 146.761 14.0765C146.906 13.6952 146.979 13.2658 146.979 12.7884C146.979 12.3172 146.908 11.894 146.765 11.5189C146.626 11.1437 146.415 10.8477 146.133 10.6307C145.854 10.4136 145.505 10.3051 145.087 10.3051C144.684 10.3051 144.343 10.409 144.063 10.6167C143.788 10.8244 143.578 11.1143 143.436 11.4863C143.293 11.8583 143.222 12.2924 143.222 12.7884ZM153.023 16.504C152.32 16.504 151.714 16.3536 151.205 16.0529C150.7 15.7491 150.309 15.3228 150.033 14.7741C149.76 14.2222 149.624 13.5758 149.624 12.8349C149.624 12.1032 149.76 11.4584 150.033 10.9004C150.309 10.3423 150.694 9.90676 151.187 9.59364C151.683 9.28052 152.262 9.12396 152.926 9.12396C153.329 9.12396 153.719 9.19062 154.098 9.32393C154.476 9.45723 154.815 9.6665 155.116 9.95171C155.417 10.2369 155.654 10.6074 155.828 11.0631C156.001 11.5158 156.088 12.066 156.088 12.714V13.2069H150.41V12.1652H154.725C154.725 11.7994 154.651 11.4755 154.502 11.1933C154.353 10.9081 154.144 10.6834 153.874 10.519C153.608 10.3547 153.295 10.2726 152.935 10.2726C152.544 10.2726 152.203 10.3687 151.912 10.5609C151.624 10.75 151.4 10.998 151.242 11.3049C151.087 11.6088 151.01 11.9389 151.01 12.2955V13.1093C151.01 13.5867 151.094 13.9928 151.261 14.3276C151.431 14.6624 151.669 14.9182 151.972 15.0949C152.276 15.2685 152.631 15.3553 153.037 15.3553C153.301 15.3553 153.541 15.3181 153.758 15.2437C153.975 15.1662 154.163 15.0515 154.321 14.8996C154.479 14.7477 154.6 14.5601 154.684 14.3369L156 14.5741C155.894 14.9616 155.705 15.3011 155.432 15.5925C155.163 15.8808 154.823 16.1056 154.414 16.2668C154.008 16.4249 153.544 16.504 153.023 16.504ZM160.965 9.21697V10.333H157.063V9.21697H160.965ZM158.11 7.50567H159.5V14.2625C159.5 14.5322 159.54 14.7353 159.621 14.8717C159.702 15.005 159.805 15.0965 159.933 15.1461C160.063 15.1926 160.204 15.2158 160.356 15.2158C160.467 15.2158 160.565 15.2081 160.649 15.1926C160.732 15.1771 160.798 15.1647 160.844 15.1554L161.095 16.304C161.015 16.335 160.9 16.366 160.751 16.397C160.602 16.4311 160.416 16.4497 160.193 16.4528C159.827 16.459 159.486 16.3939 159.17 16.2575C158.854 16.1211 158.598 15.9103 158.403 15.6251C158.207 15.3398 158.11 14.9818 158.11 14.5508V7.50567ZM164.582 16.5179C164.129 16.5179 163.72 16.4342 163.354 16.2668C162.988 16.0963 162.698 15.8498 162.484 15.5274C162.274 15.205 162.168 14.8097 162.168 14.3416C162.168 13.9386 162.246 13.6068 162.401 13.3464C162.556 13.086 162.765 12.8798 163.029 12.7279C163.292 12.576 163.587 12.4613 163.912 12.3838C164.238 12.3063 164.569 12.2474 164.907 12.2071C165.335 12.1575 165.682 12.1172 165.949 12.0862C166.215 12.0521 166.409 11.9978 166.53 11.9234C166.651 11.849 166.712 11.7281 166.712 11.5607V11.5282C166.712 11.122 166.597 10.8074 166.367 10.5842C166.141 10.3609 165.803 10.2493 165.354 10.2493C164.886 10.2493 164.517 10.3532 164.247 10.5609C163.98 10.7655 163.796 10.9934 163.693 11.2445L162.387 10.9469C162.542 10.5128 162.768 10.1625 163.066 9.89591C163.366 9.62619 163.712 9.43088 164.103 9.30997C164.493 9.18597 164.904 9.12396 165.335 9.12396C165.62 9.12396 165.923 9.15807 166.242 9.22627C166.564 9.29137 166.865 9.41228 167.144 9.58899C167.426 9.7657 167.657 10.0184 167.837 10.347C168.017 10.6725 168.107 11.0957 168.107 11.6165V16.3598H166.749V15.3832H166.693C166.603 15.5631 166.468 15.7398 166.288 15.9134C166.109 16.087 165.878 16.2311 165.595 16.3459C165.313 16.4606 164.975 16.5179 164.582 16.5179ZM164.884 15.4018C165.268 15.4018 165.597 15.3259 165.87 15.174C166.146 15.0221 166.355 14.8237 166.498 14.5787C166.643 14.3307 166.716 14.0657 166.716 13.7835V12.8628C166.667 12.9124 166.57 12.9589 166.428 13.0023C166.288 13.0426 166.129 13.0783 165.949 13.1093C165.769 13.1372 165.594 13.1635 165.423 13.1883C165.253 13.21 165.11 13.2286 164.996 13.2441C164.726 13.2782 164.479 13.3356 164.256 13.4162C164.036 13.4968 163.859 13.613 163.726 13.7649C163.596 13.9138 163.531 14.1122 163.531 14.3602C163.531 14.7043 163.658 14.9647 163.912 15.1414C164.166 15.315 164.49 15.4018 164.884 15.4018Z" fill="white"/>
</svg>
