<svg width="131" height="132" viewBox="0 0 131 132" fill="none" xmlns="http://www.w3.org/2000/svg">
<mask id="path-1-inside-1_1_16934" fill="white">
<path d="M127.226 67.7069C127.226 80.2884 123.495 92.5873 116.506 103.048C109.516 113.51 99.5806 121.663 87.9568 126.478C76.3331 131.292 63.5426 132.552 51.2028 130.098C38.8631 127.643 27.5283 121.585 18.6319 112.688C9.7354 103.792 3.67684 92.4569 1.22231 80.1172C-1.23222 67.7775 0.0275341 54.987 4.84226 43.3632C9.65699 31.7394 17.8104 21.8044 28.2716 14.8145C38.7327 7.8246 51.0317 4.09375 63.6131 4.09375V20.4989C54.2763 20.4989 45.1491 23.2676 37.3858 28.4549C29.6225 33.6422 23.5717 41.0151 19.9987 49.6412C16.4256 58.2673 15.4907 67.7593 17.3123 76.9167C19.1338 86.0742 23.6299 94.4858 30.2321 101.088C36.8342 107.69 45.2459 112.186 54.4033 114.008C63.5608 115.829 73.0527 114.894 81.6788 111.321C90.305 107.748 97.6778 101.698 102.865 93.9342C108.052 86.1709 110.821 77.0437 110.821 67.7069H127.226Z"/>
</mask>
<path d="M127.226 67.7069C127.226 80.2884 123.495 92.5873 116.506 103.048C109.516 113.51 99.5806 121.663 87.9568 126.478C76.3331 131.292 63.5426 132.552 51.2028 130.098C38.8631 127.643 27.5283 121.585 18.6319 112.688C9.7354 103.792 3.67684 92.4569 1.22231 80.1172C-1.23222 67.7775 0.0275341 54.987 4.84226 43.3632C9.65699 31.7394 17.8104 21.8044 28.2716 14.8145C38.7327 7.8246 51.0317 4.09375 63.6131 4.09375V20.4989C54.2763 20.4989 45.1491 23.2676 37.3858 28.4549C29.6225 33.6422 23.5717 41.0151 19.9987 49.6412C16.4256 58.2673 15.4907 67.7593 17.3123 76.9167C19.1338 86.0742 23.6299 94.4858 30.2321 101.088C36.8342 107.69 45.2459 112.186 54.4033 114.008C63.5608 115.829 73.0527 114.894 81.6788 111.321C90.305 107.748 97.6778 101.698 102.865 93.9342C108.052 86.1709 110.821 77.0437 110.821 67.7069H127.226Z" fill="#525866" stroke="black" stroke-width="1.74283" mask="url(#path-1-inside-1_1_16934)"/>
<mask id="path-2-outside-2_1_16934" maskUnits="userSpaceOnUse" x="50" y="0.09375" width="81" height="81" fill="black">
<rect fill="white" x="50" y="0.09375" width="81" height="81"/>
<path d="M54.5771 4.73879C64.3154 3.34133 74.2452 4.22162 83.5857 7.31048C92.9263 10.3993 101.423 15.6126 108.408 22.5404C115.394 29.4682 120.677 37.9217 123.843 47.2365C127.008 56.5512 127.971 66.4734 126.654 76.2229L93.2319 71.708C93.8507 67.1273 93.3987 62.4655 91.9112 58.0891C90.4238 53.7127 87.9416 49.7409 84.6596 46.486C81.3777 43.231 77.3856 40.7817 72.997 39.3304C68.6085 37.8791 63.9431 37.4655 59.3677 38.1221L54.5771 4.73879Z"/>
</mask>
<path d="M54.5771 4.73879C64.3154 3.34133 74.2452 4.22162 83.5857 7.31048C92.9263 10.3993 101.423 15.6126 108.408 22.5404C115.394 29.4682 120.677 37.9217 123.843 47.2365C127.008 56.5512 127.971 66.4734 126.654 76.2229L93.2319 71.708C93.8507 67.1273 93.3987 62.4655 91.9112 58.0891C90.4238 53.7127 87.9416 49.7409 84.6596 46.486C81.3777 43.231 77.3856 40.7817 72.997 39.3304C68.6085 37.8791 63.9431 37.4655 59.3677 38.1221L54.5771 4.73879Z" fill="#F46C31"/>
<path d="M54.5771 4.73879C64.3154 3.34133 74.2452 4.22162 83.5857 7.31048C92.9263 10.3993 101.423 15.6126 108.408 22.5404C115.394 29.4682 120.677 37.9217 123.843 47.2365C127.008 56.5512 127.971 66.4734 126.654 76.2229L93.2319 71.708C93.8507 67.1273 93.3987 62.4655 91.9112 58.0891C90.4238 53.7127 87.9416 49.7409 84.6596 46.486C81.3777 43.231 77.3856 40.7817 72.997 39.3304C68.6085 37.8791 63.9431 37.4655 59.3677 38.1221L54.5771 4.73879Z" stroke="black" stroke-width="7.27007" mask="url(#path-2-outside-2_1_16934)"/>
</svg>
