<svg width="79" height="79" viewBox="0 0 79 79" fill="none" xmlns="http://www.w3.org/2000/svg">
<path d="M49.0208 6.46832C49.3907 6.77586 49.6347 7.20739 49.8359 7.64435C50.4701 9.02144 50.5124 10.1817 48.7409 12.0552C46.7792 14.1299 44.1935 15.8249 41.3395 15.9123C40.7617 15.93 39.8782 15.8082 39.7721 15.0881C39.6971 14.579 39.9702 13.769 40.0774 13.2635C41.4043 7.00568 47.1043 4.87503 49.0208 6.46832Z" fill="#FDF284"/>
<path d="M48.5288 8.41504C49.0543 8.78581 49.1163 9.56534 48.9004 10.1711C48.6245 10.9451 48.0112 11.545 47.3938 12.0871C46.3639 12.9914 45.2066 13.8453 43.8548 14.0713C43.645 14.1064 43.4241 14.1249 43.2238 14.0526C42.5726 13.8174 43.0974 13.1517 43.2953 12.757C43.5621 12.225 43.8502 11.703 44.1742 11.2035C45.0593 9.83888 47.2019 7.47871 48.5288 8.41504Z" fill="#F6F8FA"/>
<path d="M38.708 10.6735C38.0386 9.54333 37.4815 8.80402 36.2961 8.24137C33.7398 7.02807 30.7161 8.00436 29.642 9.59158C27.87 12.2103 30.5192 15.6245 33.2539 16.1116C33.7145 16.1936 34.1859 16.1857 34.6537 16.1774C36.7677 16.1403 38.1885 16.1372 39.4257 15.9991C40.4702 15.8826 40.7598 15.5801 40.3926 14.5087C40.1244 13.7263 40.0074 12.8673 38.708 10.6735Z" fill="#FDF284"/>
<path d="M32.5893 11.0436C31.8097 10.0434 32.1675 9.2868 33.1571 9.24627C34.1868 9.20411 35.1297 9.79391 35.9459 10.4232C36.6259 10.9475 37.2774 11.5232 37.8097 12.2003C38.1097 12.5819 39.0872 13.8215 38.6684 14.3336C38.3128 14.7684 37.1696 14.1243 36.7891 13.9666C35.1884 13.3027 33.6593 12.4164 32.5893 11.0436Z" fill="#F6F8FA"/>
<path d="M37.9832 16.3727C37.5829 15.7673 37.6355 14.2472 38.4473 13.3766C38.9316 12.8574 39.7125 12.5902 40.3831 12.8235C41.2568 13.1275 42.0791 14.3905 41.7061 15.2801C41.613 15.5021 41.4541 15.6889 41.2976 15.8718C41.0312 16.1832 40.7522 16.5043 40.3785 16.6727C39.7773 16.9437 38.396 16.9972 37.9832 16.3727Z" fill="#F6F8FA"/>
<path d="M27.3978 63.6756C31.686 62.0313 36.4225 59.2648 40.3923 56.0853C40.5291 55.9775 40.6907 56.1818 40.5561 56.29C36.5658 59.4854 31.8042 62.2667 27.492 63.9202C27.3301 63.9823 27.2359 63.7375 27.3978 63.6756Z" fill="#F6F8FA"/>
<path d="M70.2361 29.6607C62.2355 39.3307 45.2114 59.881 45.1675 59.9338C44.7429 60.4474 44.0144 60.5732 43.4379 60.243L27.5255 50.9923C27.5623 50.0699 27.2897 49.1159 26.8181 48.2459L42.8037 57.5386C42.8037 57.5386 42.809 57.5386 42.809 57.5438C43.4776 57.9112 44.2084 57.6739 44.5333 57.2398L71.3 24.9173C71.7645 24.36 71.6656 23.5811 71.2739 23.1562C71.3158 23.1772 71.342 23.214 71.3735 23.2507C71.8871 23.8796 72.3955 24.5713 72.4898 25.3785C72.7047 27.1553 71.2582 28.4289 70.2361 29.6607Z" fill="#3B3B3B"/>
<path d="M42.8062 57.5429C42.911 57.6005 43.0262 57.6477 43.1415 57.6792C43.0262 57.653 42.911 57.6057 42.8062 57.5429Z" fill="#0A4286"/>
<path d="M69.8235 25.017C69.7946 25.0847 70.9746 23.6973 43.7905 55.3006C43.5232 55.6099 43.0777 55.6833 42.7265 55.4841L28.46 47.4231C29.5082 47.6904 30.5564 47.9577 31.6047 48.225C32.3437 48.4136 33.0985 48.6024 33.8532 48.5185C34.6131 48.4346 35.3784 48.01 35.6561 47.3026C36.0964 46.1756 35.1635 45.0017 34.2515 44.2102C32.5009 42.6903 30.5407 41.4115 28.439 40.4313L52.5537 19.1049C52.7844 18.9005 53.0936 18.8323 53.3819 18.9319L58.2195 20.4991L58.7122 19.8543L64.0006 21.4005L63.7385 21.8303L69.3833 23.7644C69.9074 23.9373 70.1065 24.5611 69.8235 25.017Z" fill="#0A4286"/>
<path d="M71.3723 24.8184C71.333 24.91 44.501 57.2822 44.4272 57.3558C44.4877 57.2955 71.33 24.8924 71.3723 24.8184Z" fill="#0A4286"/>
<path d="M27.1378 39.7986L51.9705 17.6389C52.3457 17.3026 52.8744 17.1793 53.3515 17.3172C53.5154 17.3646 53.4489 17.6138 53.2803 17.5695C52.8816 17.4595 52.4568 17.5613 52.145 17.8395L27.3118 39.9992C27.1822 40.1164 27.0063 39.9145 27.1378 39.7986Z" fill="#F6F8FA"/>
<path d="M42.7425 57.6599C42.7348 57.6558 42.7281 57.6509 42.7215 57.6455C26.048 47.945 26.7333 48.3731 26.6995 48.3094C25.9739 46.9606 25.4672 46.8661 25.5904 46.6559C25.6195 46.6055 25.6805 46.5801 25.7362 46.595C26.2035 46.7153 26.6724 46.834 27.1412 46.953C28.069 47.1884 28.4955 47.294 28.5247 47.31L42.7911 55.3712C43.0895 55.5403 43.4683 55.4748 43.6914 55.2161C70.7591 23.7494 69.6805 25.0202 69.7029 24.9676C69.9688 24.5322 69.7599 24.0275 69.3426 23.89L63.6965 21.9552C63.6181 21.9284 63.5833 21.8355 63.6269 21.763L63.7999 21.4795L58.7619 20.0064C58.3615 20.4875 58.3313 20.6765 58.1795 20.625L53.3416 19.0577C53.099 18.9738 52.8385 19.0291 52.6409 19.2041C26.9116 41.914 28.5341 40.6217 28.3829 40.551C27.1787 39.9798 27.118 40.0621 27.0946 39.9258C27.0697 39.7892 25.3708 41.4141 51.9694 17.6456C52.3918 17.2682 52.982 17.1836 53.3917 17.3288L70.6954 22.6337C71.7267 22.9652 72.0514 24.2374 71.4688 24.9047C71.4463 24.9572 72.5104 23.6578 44.6306 57.3246C44.2816 57.7987 43.4805 58.065 42.7425 57.6599ZM44.4249 57.1626L71.196 24.8348C71.7347 24.1935 71.4822 23.1599 70.6171 22.884L53.3175 17.5806C53.2651 17.5806 52.6854 17.3578 52.1439 17.8411L27.4683 39.8605C27.7851 39.9903 28.103 40.13 28.4172 40.2771L52.4669 19.0078C52.7371 18.769 53.0949 18.6953 53.425 18.8092L58.1718 20.347C58.5777 19.8572 58.6014 19.6853 58.7491 19.7298L64.038 21.276C64.1205 21.2999 64.1577 21.3962 64.1132 21.47L63.9361 21.7602L69.4261 23.6417C70.0176 23.8367 70.2695 24.5484 69.9348 25.0871C69.9118 25.1527 71.0186 23.8459 43.89 55.3873C43.585 55.7405 43.068 55.8293 42.6621 55.5995L28.4111 47.5468C27.6368 47.3478 26.8481 47.1497 26.092 46.9569C26.4032 47.3239 26.6826 47.7308 26.9124 48.1525L42.8664 57.4265L42.8659 57.427C43.4516 57.7492 44.1169 57.5733 44.4249 57.1626Z" fill="#F6F8FA"/>
<path d="M10.6989 57.5434C12.4702 51.4012 14.2344 49.0134 15.8245 46.3314C17.1977 44.0154 18.617 41.6205 20.9981 40.0177C23.0423 38.6497 24.5505 38.7235 26.9359 39.6425L27.2712 39.7735C27.2834 39.7781 27.2947 39.7843 27.3044 39.7919C29.738 40.7657 32.1792 42.2357 34.3386 44.1103C35.0936 44.7654 36.2841 46.0573 35.7794 47.3492C35.5081 48.0399 34.7583 48.5497 33.8687 48.648C33.0831 48.7358 32.28 48.5313 31.5736 48.3511C24.0627 46.438 26.6533 47.0978 26.0929 46.9548C27.4618 48.5683 28.2348 50.9438 27.1319 52.7526C26.0893 54.4681 23.87 54.9338 21.8718 55.2353C21.6949 55.2587 21.6653 55.0015 21.8329 54.9763C23.7723 54.6835 25.924 54.2354 26.9078 52.6162C27.713 51.2965 27.4345 49.6607 26.7005 48.3076C25.9749 46.9582 25.4682 46.8641 25.5913 46.6538C25.6205 46.6034 25.6814 46.5781 25.7372 46.5929C26.2045 46.7132 26.6734 46.832 27.1422 46.951C27.5931 47.0654 28.044 47.1795 28.4939 47.2952L31.6382 48.0972C32.3558 48.2802 33.0959 48.4686 33.8401 48.3874C34.6339 48.2996 35.2993 47.8546 35.5358 47.2537C35.9816 46.1118 34.8694 44.9182 34.1666 44.3084C30.5568 41.1734 27.3 40.1217 27.1452 40.0056L26.8422 39.8871C24.5035 38.9859 23.0885 38.934 21.144 40.2354C18.8126 41.8047 17.4081 44.174 16.0502 46.4652C14.4367 49.1858 12.7206 51.4805 10.9508 57.6161C10.9034 57.7817 10.6508 57.7112 10.6989 57.5434Z" fill="#F6F8FA"/>
<path d="M26.5183 61.509C28.7369 64.8788 28.7824 65.9716 27.7847 67.6437C26.5658 69.6866 24.8064 71.4036 22.7345 72.5724C21.3972 73.3267 20.839 73.093 20.034 72.4104C17.1229 69.942 14.4773 67.1801 11.9418 64.3323C9.96575 62.1129 5.99033 59.2326 7.88122 55.9526C8.57659 54.7465 9.42684 53.6264 10.423 52.6525C11.0818 52.0084 11.794 51.2329 12.7219 51.0013C13.6788 50.7624 14.6753 51.4003 15.5027 51.8087C19.9503 54.0041 23.8018 57.383 26.5183 61.509Z" fill="#FE984D"/>
<path d="M26.4272 61.3738C23.4673 57.8974 20.0415 54.8476 16.2458 52.3097C13.9838 50.797 13.0265 51.016 11.2375 52.605L8.5493 54.9924C8.42001 55.1076 8.24562 54.9114 8.37529 54.7964L11.0634 52.4089C12.9082 50.7702 13.9891 50.4865 16.3911 52.0916C20.2074 54.6434 23.651 57.709 26.6268 61.2038C26.7405 61.3366 26.5393 61.5045 26.4272 61.3738Z" fill="#F6F8FA"/>
<path d="M34.6875 54.9798C33.3863 54.0763 31.8751 53.2884 31.1946 53.0168C29.9294 52.5118 30.146 52.1883 29.7914 52.4986C29.3288 52.9035 28.5755 53.4315 28.5566 54.0706C28.5393 54.6565 29.0611 55.1432 29.5347 55.3929C30.3102 55.8017 31.8594 56.4895 32.6747 56.5442C34.0061 56.6335 34.9434 55.4735 34.8571 55.1681C34.8336 55.0851 34.7583 55.029 34.6875 54.9798Z" fill="#F6F8FA"/>
<path d="M48.4628 70.3298C48.1349 69.5624 48.4162 68.7236 48.5616 67.9359C48.6988 67.2009 48.6225 66.2983 47.9971 65.9694C45.9367 64.8853 38.4232 69.5167 35.1208 68.6893C34.2834 68.4797 33.3411 67.7852 33.2505 66.7556C33.1528 65.6513 34.0582 64.7572 34.9381 64.2886C36.135 63.6515 38.3421 63.1816 38.4221 61.9746C38.5226 60.436 34.8497 59.8345 33.2956 59.8177C31.7953 59.8065 30.1716 60.0147 29.0376 59.0505C28.599 58.6771 28.3641 58.1832 28.4091 57.7289C28.5081 56.7284 30.1396 55.5397 31.0911 55.0963C31.2466 55.0222 31.3599 55.2602 31.2017 55.3338C30.4283 55.6944 29.7194 56.2226 29.1518 56.8611C28.9455 57.0935 28.7044 57.4052 28.6701 57.7548C28.6333 58.1235 28.8344 58.5333 29.2076 58.8508C30.2706 59.755 31.8843 59.5393 33.2987 59.5556C35.064 59.5746 38.7996 60.2198 38.6832 61.9917C38.5907 63.401 36.2229 63.9017 35.0609 64.5199C34.2553 64.9491 33.4251 65.7555 33.5116 66.7326C33.5909 67.6344 34.4344 68.2474 35.1843 68.4349C38.4233 69.2471 45.8787 64.5611 48.1189 65.7376C48.8707 66.1327 48.9736 67.1572 48.8196 67.984C48.6777 68.7345 48.4142 69.5498 48.7034 70.2269C49.0453 71.0264 50.0239 71.3194 50.7835 71.2541C52.494 71.1062 53.992 69.5665 55.8143 69.7342C55.981 69.7502 55.9693 70.0021 55.7898 69.9953C54.0675 69.8316 52.5733 71.3629 50.806 71.5152C49.8836 71.5947 48.8364 71.2031 48.4628 70.3298Z" fill="#F6F8FA"/>
<path d="M34.9793 60.9131C34.4684 60.955 34.0022 60.6418 33.5978 60.3268C33.4886 60.2418 33.3767 60.151 33.3182 60.0257C33.1548 59.6753 33.454 59.1239 34.1747 59.053C34.5826 59.0128 35.4519 59.1816 35.8039 59.3804C36.0346 59.5106 36.232 59.7239 36.281 59.9842C36.361 60.4098 36.0058 60.827 35.5884 60.9426C35.1711 61.0582 34.7234 60.9387 34.329 60.7597" fill="#F6F8FA"/>
<path d="M44.3428 64.9161C44.5873 64.8887 44.8405 64.898 45.0708 64.9848C45.8083 65.2629 46.0357 66.3167 45.6024 66.9751C44.9633 67.946 43.3536 67.9866 42.6478 67.3079C41.5301 66.2331 43.3667 65.0255 44.3428 64.9161Z" fill="#F6F8FA"/>
<path d="M54.0125 70.1147C54.1715 70.328 54.1357 70.6321 54.0285 70.8756C53.6395 71.759 52.5321 72.0806 51.7296 71.5272C50.3796 70.5963 53.1475 68.9542 54.0125 70.1147Z" fill="#F6F8FA"/>
<path d="M34.0976 66.1718C33.8693 66.3665 33.4967 66.4103 33.2748 66.2083C32.9485 65.9114 33.1197 65.4964 33.3074 65.1788C33.3865 65.0451 33.4741 64.913 33.5949 64.8154C33.7775 64.6679 34.1087 64.5605 34.3039 64.7338C34.635 65.0279 34.4534 65.8686 34.0976 66.1718Z" fill="#F6F8FA"/>
<path d="M51.5909 35.8811C47.0086 36.6403 40.6326 36.7227 34.1421 36.7619C34.1421 36.7619 33.0175 15.9184 33.0822 15.769L52.4164 14.7929L52.7327 34.6609C52.743 35.3088 52.2381 35.8484 51.5909 35.8811Z" fill="#3B3B3B"/>
<path d="M33.0817 15.7695L22.4468 16.3064L23.8142 35.8019C23.8502 36.3162 24.2768 36.7158 24.7924 36.7182L34.1415 36.7626L33.0817 15.7695Z" fill="#F6F8FA"/>
<path d="M54.3237 19.8285C54.3314 20.3155 53.9519 20.7211 53.4654 20.7457L32.8183 21.788L21.7921 22.0856C21.3013 22.0988 20.8897 21.7179 20.8649 21.2275L20.6667 17.3015C20.6415 16.8029 21.0253 16.3783 21.5239 16.3531C23.9254 16.2319 54.7524 14.6756 53.3075 14.7486C53.8184 14.7228 54.2488 15.1256 54.2569 15.637L54.3237 19.8285Z" fill="#FE984D"/>
<path d="M44.559 15.1914L45.6188 36.1844L41.5886 36.3879L40.7591 15.3832L44.559 15.1914Z" fill="#FDF284"/>
<path d="M33.2544 21.7806L32.9509 15.7765C32.9425 15.6084 33.204 15.5826 33.2129 15.7632L33.5165 21.7673C33.525 21.9405 33.2634 21.9555 33.2544 21.7806Z" fill="#F6F8FA"/>
<path d="M51.5909 35.8811C47.0086 36.6403 40.6326 36.7227 34.1421 36.7619C34.1421 36.7619 33.0175 15.9184 33.0822 15.769L52.4164 14.7929L52.7327 34.6609C52.743 35.3088 52.2381 35.8484 51.5909 35.8811Z" fill="#3B3B3B"/>
<path d="M33.0817 15.7695L22.4468 16.3064L23.8142 35.8019C23.8502 36.3162 24.2768 36.7158 24.7924 36.7182L34.1415 36.7626L33.0817 15.7695Z" fill="#F6F8FA"/>
<path d="M54.3237 19.8285C54.3314 20.3155 53.9519 20.7211 53.4654 20.7457L32.8183 21.788L21.7921 22.0856C21.3013 22.0988 20.8897 21.7179 20.8649 21.2275L20.6667 17.3015C20.6415 16.8029 21.0253 16.3783 21.5239 16.3531C23.9254 16.2319 54.7524 14.6756 53.3075 14.7486C53.8184 14.7228 54.2488 15.1256 54.2569 15.637L54.3237 19.8285Z" fill="#FE984D"/>
<path d="M44.559 15.1914L45.6188 36.1844L41.5886 36.3879L40.7591 15.3832L44.559 15.1914Z" fill="#FDF284"/>
<path d="M33.2544 21.7806L32.9509 15.7765C32.9425 15.6084 33.204 15.5826 33.2129 15.7632L33.5165 21.7673C33.525 21.9405 33.2634 21.9555 33.2544 21.7806Z" fill="#F6F8FA"/>
<g opacity="0.7">
<path d="M53.4846 36.7538V29.8047C51.9049 31.5559 50.3251 33.3069 48.7453 35.0578C48.2272 35.632 47.7007 36.1991 47.1617 36.7538H53.4846Z" fill="#0A4286"/>
</g>
<path d="M47.2919 40.0149C46.6224 39.9331 45.9862 39.8768 45.3464 39.4792C44.6866 39.0693 44.3063 38.3821 44.377 37.7285C44.3959 37.5508 44.6561 37.5874 44.638 37.7567C44.5694 38.3867 45.0137 38.9641 45.4846 39.2566C46.0353 39.5985 46.713 39.6996 47.3037 39.7533C47.4695 39.7686 47.4574 40.0149 47.2919 40.0149Z" fill="#F6F8FA"/>
<path d="M55.5984 30.6125C55.5018 29.4623 54.3473 28.4979 53.1953 28.6132C53.024 28.6318 52.9957 28.37 53.1697 28.3527C54.4582 28.2213 55.7506 29.2894 55.8594 30.5904C55.8742 30.7639 55.6127 30.7865 55.5984 30.6125Z" fill="#F6F8FA"/>
<path d="M59.8145 30.9712C59.6202 27.2114 58.7613 26.3698 55.5918 25.4513C55.426 25.4032 55.4967 25.1513 55.6645 25.1995C56.8403 25.5402 58.0716 25.9117 58.8988 26.8405C59.8446 27.9012 59.9956 29.3932 60.0765 30.9579C60.0851 31.1315 59.8234 31.1458 59.8145 30.9712Z" fill="#F6F8FA"/>
<path d="M41.7992 38.6402C41.7818 38.4656 42.0435 38.4458 42.0602 38.6146C42.3886 41.9503 44.9045 43.7207 47.1054 43.1044C47.2745 43.0593 47.3414 43.3105 47.176 43.3567C44.9525 43.9815 42.1581 42.284 41.7992 38.6402Z" fill="#F6F8FA"/>
<path d="M52.2457 39.7184C54.2219 39.0282 55.7779 37.2588 56.2088 35.2106C56.2442 35.0422 56.5016 35.094 56.4658 35.2644C56.0159 37.4008 54.3933 39.2459 52.3317 39.9656C52.1691 40.0237 52.0811 39.7755 52.2457 39.7184Z" fill="#F6F8FA"/>
<path d="M53.5139 12.4934C53.3619 11.6286 53.3035 10.7465 53.3404 9.87149C53.3434 9.79957 53.3905 9.74686 53.477 9.74609C53.7857 9.75923 53.3938 10.3006 53.7718 12.4478C53.8023 12.6176 53.5444 12.6652 53.5139 12.4934Z" fill="#F6F8FA"/>
<path d="M54.7815 13.2093C56.0161 11.9042 57.1662 10.4979 58.2001 9.02969C58.301 8.88746 58.5136 9.03981 58.414 9.18068C57.3734 10.6591 56.2152 12.0751 54.9719 13.3895C54.8533 13.5152 54.6622 13.336 54.7815 13.2093Z" fill="#F6F8FA"/>
<path d="M55.7684 14.5456C55.6012 14.5456 55.5922 14.297 55.7582 14.284C56.7199 14.209 57.6684 13.9124 58.5016 13.4264C58.6504 13.338 58.7837 13.5653 58.6337 13.6527C57.7666 14.1586 56.7793 14.4672 55.7787 14.545C55.7751 14.5456 55.7715 14.5456 55.7684 14.5456Z" fill="#F6F8FA"/>
<path d="M14.7939 42.0887C13.0634 41.5116 11.6927 39.9162 11.383 38.1189C11.1046 36.5056 11.686 34.7595 12.8474 33.6065C12.3824 32.5474 12.4486 30.168 14.1817 27.6575C15.1609 26.2407 16.4358 25.0586 17.6694 23.9154C17.797 23.7982 17.9747 23.9898 17.8475 24.1079C16.6247 25.2413 15.36 26.4134 14.3977 27.8064C12.7703 30.1618 12.665 32.406 13.0521 33.4151C14.3301 32.2864 15.2937 32.9412 15.1291 33.7708C14.9244 34.8053 13.5744 34.8171 12.9748 33.8499C11.9102 34.9437 11.3815 36.5698 11.641 38.0743C11.9348 39.7793 13.2353 41.2925 14.8768 41.8399C15.0419 41.8954 14.9578 42.1433 14.7939 42.0887ZM13.1683 33.6626C13.4826 34.2137 14.0672 34.4029 14.4637 34.2453C14.8456 34.0919 15.0346 33.5109 14.7447 33.2291C14.4259 32.9181 13.8388 33.1216 13.4293 33.4422C13.3392 33.5124 13.2527 33.5861 13.1683 33.6626Z" fill="#F6F8FA"/>
</svg>
