<svg width="55" height="54" viewBox="0 0 55 54" fill="none" xmlns="http://www.w3.org/2000/svg">
<rect x="0.946777" width="54" height="54" rx="27" fill="white"/>
<path d="M45.7618 14.0917C43.2088 10.5682 39.6682 7.88089 35.5879 6.36961C31.5076 4.85834 27.0708 4.59095 22.8385 5.60127C18.6063 6.61158 14.7686 8.85422 11.8109 12.0456C8.85322 15.237 6.90829 19.2337 6.22208 23.5305C5.53587 27.8272 6.13921 32.2309 7.95578 36.1848C9.77236 40.1386 12.7206 43.465 16.4277 45.7433C20.1347 48.0215 24.4341 49.1494 28.7822 48.9841C33.1302 48.8189 37.3316 47.368 40.8551 44.815L38.1434 41.0725C35.3601 43.0892 32.0413 44.2353 28.6067 44.3658C25.1721 44.4963 21.7758 43.6054 18.8475 41.8058C15.9192 40.0061 13.5903 37.3785 12.1554 34.2553C10.7204 31.132 10.2438 27.6534 10.7859 24.2593C11.328 20.8652 12.8643 17.7081 15.2007 15.1871C17.537 12.6662 20.5685 10.8947 23.9116 10.0966C27.2548 9.29853 30.7596 9.50975 33.9827 10.7035C37.2058 11.8973 40.0026 14.0201 42.0193 16.8034L45.7618 14.0917Z" fill="#FFDAC2"/>
<path d="M42.0889 12.8579C42.87 12.0768 44.1443 12.0714 44.8512 12.9202C46.5037 14.9042 47.7975 17.1679 48.6684 19.6098C49.7637 22.681 50.1626 25.9573 49.8363 29.2016C49.51 32.4459 48.4667 35.5771 46.7817 38.3687C45.442 40.5882 43.7233 42.5489 41.7087 44.1642C40.847 44.8551 39.5993 44.5961 38.9894 43.6752L38.6511 43.1643C38.0412 42.2434 38.3024 41.0107 39.1473 40.2992C40.6002 39.0755 41.8464 37.619 42.8326 35.985C44.1643 33.7788 44.9889 31.3041 45.2468 28.74C45.5047 26.1759 45.1894 23.5866 44.3238 21.1593C43.6826 19.3616 42.7515 17.6861 41.5713 16.1977C40.8851 15.3321 40.8746 14.0721 41.6557 13.2911L42.0889 12.8579Z" fill="#C2540A"/>
<path d="M21.7188 22.326H22.6988V32H21.4388V24.762C20.8508 25.322 20.2908 25.322 19.4228 25.322V24.412C21.1168 24.412 21.5788 23.586 21.7188 22.326ZM28.9246 21.99L25.0466 32H23.9266L27.8046 21.99H28.9246ZM30.6079 27.128C31.0839 26.218 32.0639 25.686 33.1979 25.686C35.0459 25.686 36.3339 26.96 36.3339 28.878C36.3339 30.67 35.0739 32.196 32.9739 32.196C30.3279 32.196 29.3479 30.236 29.3479 27.156C29.3479 23.936 30.6079 22.13 33.0159 22.13C34.8219 22.13 35.9419 23.362 36.0819 24.776H34.8219C34.6959 23.838 34.1079 23.25 33.0159 23.25C31.0139 23.25 30.6359 25.154 30.6079 27.1V27.128ZM32.9739 31.076C34.3039 31.076 35.0739 30.25 35.0739 28.962C35.0739 27.576 34.2339 26.806 33.0859 26.806C31.6859 26.806 30.7479 27.688 30.7479 28.99C30.7479 30.236 31.5739 31.076 32.9739 31.076Z" fill="#525866"/>
</svg>
